<svg xmlns="http://www.w3.org/2000/svg" viewBox="0 0 373 346"><defs><style>.cls-1,

/* PAN */
/*.cls-2{fill:#ececec;}*/

/* PRI */
.cls-2{fill:#005734;}

.cls-2{fill-rule:evenodd;}</style></defs><title>forma-cuadrado-redondo</title><g id="Capa_2" data-name="Capa 2"><g id="Capa_1-2" data-name="Capa 1"><g id="forma-cuadrado-redondo"><rect id="forma-blanca" class="cls-1" width="355" height="346" rx="143"/><path class="cls-2" d="M369.81,27.32a3.16,3.16,0,1,0-3.18-3.16A3.17,3.17,0,0,0,369.81,27.32Zm-20.94,0a3.16,3.16,0,1,0-3.19-3.16A3.17,3.17,0,0,0,348.87,27.32Zm-20.94,0a3.16,3.16,0,1,0-3.19-3.16A3.16,3.16,0,0,0,327.93,27.32Zm-21.86,0a3.16,3.16,0,1,0-3.18-3.16A3.17,3.17,0,0,0,306.07,27.32Zm-20.94,0a3.16,3.16,0,1,0-3.19-3.16A3.17,3.17,0,0,0,285.13,27.32Zm-20.94,0A3.16,3.16,0,1,0,261,24.16,3.16,3.16,0,0,0,264.19,27.32Zm84.68,22.14a3.16,3.16,0,1,0-3.19-3.16A3.18,3.18,0,0,0,348.87,49.46Zm-42.8,0a3.16,3.16,0,1,0-3.18-3.16A3.18,3.18,0,0,0,306.07,49.46Zm63.74,0a3.16,3.16,0,1,0-3.18-3.16A3.18,3.18,0,0,0,369.81,49.46Zm-84.68,0a3.16,3.16,0,1,0-3.19-3.16A3.18,3.18,0,0,0,285.13,49.46Zm42.8,0a3.16,3.16,0,1,0-3.19-3.16A3.17,3.17,0,0,0,327.93,49.46Zm-63.74,0A3.16,3.16,0,1,0,261,46.3,3.17,3.17,0,0,0,264.19,49.46ZM369.81,71.59a3.16,3.16,0,1,0-3.18-3.16A3.17,3.17,0,0,0,369.81,71.59Zm-20.94,0a3.16,3.16,0,1,0-3.19-3.16A3.17,3.17,0,0,0,348.87,71.59Zm-20.94,0a3.16,3.16,0,1,0-3.19-3.16A3.16,3.16,0,0,0,327.93,71.59Zm-21.86,0a3.16,3.16,0,1,0-3.18-3.16A3.17,3.17,0,0,0,306.07,71.59Zm-20.94,0a3.16,3.16,0,1,0-3.19-3.16A3.17,3.17,0,0,0,285.13,71.59Zm-20.94,0A3.16,3.16,0,1,0,261,68.43,3.16,3.16,0,0,0,264.19,71.59ZM369.81,93.73a3.16,3.16,0,1,0-3.18-3.16A3.18,3.18,0,0,0,369.81,93.73Zm-20.94,0a3.16,3.16,0,1,0-3.19-3.16A3.18,3.18,0,0,0,348.87,93.73Zm-20.94,0a3.16,3.16,0,1,0-3.19-3.16A3.17,3.17,0,0,0,327.93,93.73Zm-21.86,0a3.16,3.16,0,1,0-3.18-3.16A3.18,3.18,0,0,0,306.07,93.73Zm-20.94,0a3.16,3.16,0,1,0-3.19-3.16A3.18,3.18,0,0,0,285.13,93.73Zm-20.94,0A3.16,3.16,0,1,0,261,90.57,3.17,3.17,0,0,0,264.19,93.73Zm105.62,22.13a3.16,3.16,0,1,0-3.18-3.16A3.17,3.17,0,0,0,369.81,115.86Zm-20.94,0a3.16,3.16,0,1,0-3.19-3.16A3.17,3.17,0,0,0,348.87,115.86Zm-20.94,0a3.16,3.16,0,1,0-3.19-3.16A3.16,3.16,0,0,0,327.93,115.86Zm-21.86,0a3.16,3.16,0,1,0-3.18-3.16A3.17,3.17,0,0,0,306.07,115.86Zm-20.94,0a3.16,3.16,0,1,0-3.19-3.16A3.17,3.17,0,0,0,285.13,115.86Zm-20.94,0A3.16,3.16,0,1,0,261,112.7,3.16,3.16,0,0,0,264.19,115.86ZM306.07,138a3.16,3.16,0,1,0-3.18-3.16A3.18,3.18,0,0,0,306.07,138Zm63.74,0a3.16,3.16,0,1,0-3.18-3.16A3.18,3.18,0,0,0,369.81,138Zm-41.88,0a3.16,3.16,0,1,0-3.19-3.16A3.17,3.17,0,0,0,327.93,138Zm-42.8,0a3.16,3.16,0,1,0-3.19-3.16A3.18,3.18,0,0,0,285.13,138Zm63.74,0a3.16,3.16,0,1,0-3.19-3.16A3.18,3.18,0,0,0,348.87,138Zm-84.68,0a3.16,3.16,0,1,0-3.19-3.16A3.17,3.17,0,0,0,264.19,138Zm105.62,24.32a3.16,3.16,0,1,0-3.18-3.16A3.17,3.17,0,0,0,369.81,162.32Zm-105.62,0a3.16,3.16,0,1,0-3.19-3.16A3.16,3.16,0,0,0,264.19,162.32Zm20.94,0a3.16,3.16,0,1,0-3.19-3.16A3.17,3.17,0,0,0,285.13,162.32Zm20.94,0a3.16,3.16,0,1,0-3.18-3.16A3.17,3.17,0,0,0,306.07,162.32Zm21.86,0a3.16,3.16,0,1,0-3.19-3.16A3.16,3.16,0,0,0,327.93,162.32Zm20.94,0a3.16,3.16,0,1,0-3.19-3.16A3.17,3.17,0,0,0,348.87,162.32Zm-42.8,22.14a3.16,3.16,0,1,0-3.18-3.16A3.18,3.18,0,0,0,306.07,184.46Zm42.8,0a3.16,3.16,0,1,0-3.19-3.16A3.18,3.18,0,0,0,348.87,184.46Zm-84.68,0A3.16,3.16,0,1,0,261,181.3,3.17,3.17,0,0,0,264.19,184.46Zm20.94,0a3.16,3.16,0,1,0-3.19-3.16A3.18,3.18,0,0,0,285.13,184.46Zm42.8,0a3.16,3.16,0,1,0-3.19-3.16A3.17,3.17,0,0,0,327.93,184.46Zm41.88,0a3.16,3.16,0,1,0-3.18-3.16A3.18,3.18,0,0,0,369.81,184.46Zm-20.94,22.13a3.16,3.16,0,1,0-3.19-3.16A3.17,3.17,0,0,0,348.87,206.59Zm-63.74,0a3.16,3.16,0,1,0-3.19-3.16A3.17,3.17,0,0,0,285.13,206.59Zm42.8,0a3.16,3.16,0,1,0-3.19-3.16A3.16,3.16,0,0,0,327.93,206.59Zm-21.86,0a3.16,3.16,0,1,0-3.18-3.16A3.17,3.17,0,0,0,306.07,206.59Zm63.74,0a3.16,3.16,0,1,0-3.18-3.16A3.17,3.17,0,0,0,369.81,206.59Zm-105.62,0a3.16,3.16,0,1,0-3.19-3.16A3.16,3.16,0,0,0,264.19,206.59Zm105.62,22.14a3.16,3.16,0,1,0-3.18-3.16A3.18,3.18,0,0,0,369.81,228.73Zm-20.94,0a3.16,3.16,0,1,0-3.19-3.16A3.18,3.18,0,0,0,348.87,228.73Zm-20.94,0a3.16,3.16,0,1,0-3.19-3.16A3.17,3.17,0,0,0,327.93,228.73Zm-21.86,0a3.16,3.16,0,1,0-3.18-3.16A3.18,3.18,0,0,0,306.07,228.73Zm-20.94,0a3.16,3.16,0,1,0-3.19-3.16A3.18,3.18,0,0,0,285.13,228.73Zm84.68,22.13a3.16,3.16,0,1,0-3.18-3.16A3.17,3.17,0,0,0,369.81,250.86Zm-20.94,0a3.16,3.16,0,1,0-3.19-3.16A3.17,3.17,0,0,0,348.87,250.86Zm-20.94,0a3.16,3.16,0,1,0-3.19-3.16A3.16,3.16,0,0,0,327.93,250.86Zm-21.86,0a3.16,3.16,0,1,0-3.18-3.16A3.17,3.17,0,0,0,306.07,250.86ZM369.81,273a3.16,3.16,0,1,0-3.18-3.16A3.18,3.18,0,0,0,369.81,273Zm-20.94,0a3.16,3.16,0,1,0-3.19-3.16A3.18,3.18,0,0,0,348.87,273Zm-20.94,0a3.16,3.16,0,1,0-3.19-3.16A3.17,3.17,0,0,0,327.93,273Z"/></g></g></g></svg>