<svg id="Capa_1" data-name="Capa 1" xmlns="http://www.w3.org/2000/svg" viewBox="0 0 222 496">
    <defs>
        <style>
            .cls-1 {
                fill: #e5e5e5;
            }

            .cls-1,
            .cls-2 {
                fill-rule: evenodd;
            }

            .cls-2 {
                /* DEFAULT */
                fill: #3b58b2;
                /* MORENA */
                fill: #cc3a00;
                /* MOVCIUDADANO */
                fill: #c90;
                /* PAN */
                fill: #3b58b2;
                /* PRD */
                fill: #c90;
                /* PRI */
                fill: #cc3a00;
            }
        </style>
    </defs>
    <title>forma-Inferior-izquirdo</title>
    <g id="Capa_1-2" data-name="Capa 1-2">
        <g id="forma-Inferior-izquirdo">
            <g id="Shape">
                <path class="cls-1"
                    d="M0,496H222V289.42a55.55,55.55,0,0,0-55.5-55.58A55.55,55.55,0,0,1,111,178.26h0v-67.1A111.08,111.08,0,0,0,0,0H0Z"
                    transform="translate(0 0)" />
            </g>
            <path id="Combined-Shape" class="cls-2"
                d="M85.19,314.68a3.16,3.16,0,1,0,3.18,3.16,3.15,3.15,0,0,0-3.18-3.16Zm20.94,0a3.16,3.16,0,1,0,3.19,3.16,3.15,3.15,0,0,0-3.19-3.16Zm20.94,0a3.16,3.16,0,1,0,3.19,3.16,3.15,3.15,0,0,0-3.19-3.16Zm21.86,0a3.16,3.16,0,1,0,3.18,3.16,3.15,3.15,0,0,0-3.18-3.16Zm20.94,0a3.16,3.16,0,1,0,3.19,3.16,3.15,3.15,0,0,0-3.19-3.16Zm20.94,0a3.16,3.16,0,1,0,3.19,3.16,3.15,3.15,0,0,0-3.19-3.16Zm-84.68-22.14a3.16,3.16,0,1,0,3.19,3.16,3.15,3.15,0,0,0-3.19-3.16Zm42.8,0a3.16,3.16,0,1,0,3.18,3.16,3.15,3.15,0,0,0-3.18-3.16Zm-63.74,0a3.16,3.16,0,1,0,3.18,3.16,3.15,3.15,0,0,0-3.18-3.16Zm84.68,0a3.16,3.16,0,1,0,3.19,3.16,3.15,3.15,0,0,0-3.19-3.16Zm-42.8,0a3.16,3.16,0,1,0,3.19,3.16,3.15,3.15,0,0,0-3.19-3.16Zm63.74,0A3.16,3.16,0,1,0,194,295.7a3.15,3.15,0,0,0-3.19-3.16ZM85.19,270.41a3.16,3.16,0,1,0,3.18,3.16,3.15,3.15,0,0,0-3.18-3.16Zm20.94,0a3.16,3.16,0,1,0,3.19,3.16,3.15,3.15,0,0,0-3.19-3.16Zm20.94,0a3.16,3.16,0,1,0,3.19,3.16,3.15,3.15,0,0,0-3.19-3.16Zm21.86,0a3.16,3.16,0,1,0,3.18,3.16,3.15,3.15,0,0,0-3.18-3.16Zm20.94,0a3.16,3.16,0,1,0,3.19,3.16,3.15,3.15,0,0,0-3.19-3.16Zm20.94,0a3.16,3.16,0,1,0,3.19,3.16,3.15,3.15,0,0,0-3.19-3.16ZM85.19,248.27a3.16,3.16,0,1,0,3.18,3.16A3.15,3.15,0,0,0,85.19,248.27Zm20.94,0a3.16,3.16,0,1,0,3.19,3.16A3.15,3.15,0,0,0,106.13,248.27Zm20.94,0a3.16,3.16,0,1,0,3.19,3.16,3.15,3.15,0,0,0-3.19-3.16Zm21.86,0a3.16,3.16,0,1,0,3.18,3.16,3.15,3.15,0,0,0-3.18-3.16Zm20.94,0a3.16,3.16,0,1,0,3.19,3.16,3.15,3.15,0,0,0-3.19-3.16Zm20.94,0a3.16,3.16,0,1,0,3.19,3.16,3.15,3.15,0,0,0-3.19-3.16ZM85.19,226.14a3.16,3.16,0,1,0,3.18,3.16,3.15,3.15,0,0,0-3.18-3.16Zm20.94,0a3.16,3.16,0,1,0,3.19,3.16,3.15,3.15,0,0,0-3.19-3.16Zm20.94,0a3.16,3.16,0,1,0,3.19,3.16,3.15,3.15,0,0,0-3.19-3.16Zm21.86,0a3.16,3.16,0,1,0,3.18,3.16,3.15,3.15,0,0,0-3.18-3.16Zm20.94,0a3.16,3.16,0,1,0,3.19,3.16,3.15,3.15,0,0,0-3.19-3.16Zm20.94,0A3.16,3.16,0,1,0,194,229.3a3.15,3.15,0,0,0-3.19-3.16ZM148.93,204a3.16,3.16,0,1,0,3.18,3.16A3.15,3.15,0,0,0,148.93,204Zm-63.74,0a3.16,3.16,0,1,0,3.18,3.16A3.15,3.15,0,0,0,85.19,204Zm41.88,0a3.16,3.16,0,1,0,3.19,3.16,3.15,3.15,0,0,0-3.19-3.16Zm42.8,0a3.16,3.16,0,1,0,3.19,3.16A3.15,3.15,0,0,0,169.87,204Zm-63.74,0a3.16,3.16,0,1,0,3.19,3.16A3.15,3.15,0,0,0,106.13,204Zm84.68,0a3.16,3.16,0,1,0,3.19,3.16,3.15,3.15,0,0,0-3.19-3.16ZM85.19,179.68a3.16,3.16,0,1,0,3.18,3.16,3.15,3.15,0,0,0-3.18-3.16Zm105.62,0a3.16,3.16,0,1,0,3.19,3.16,3.15,3.15,0,0,0-3.19-3.16Zm-20.94,0a3.16,3.16,0,1,0,3.19,3.16,3.15,3.15,0,0,0-3.19-3.16Zm-20.94,0a3.16,3.16,0,1,0,3.18,3.16,3.15,3.15,0,0,0-3.18-3.16Zm-21.86,0a3.16,3.16,0,1,0,3.19,3.16,3.15,3.15,0,0,0-3.19-3.16Zm-20.94,0a3.16,3.16,0,1,0,3.19,3.16,3.15,3.15,0,0,0-3.19-3.16Zm42.8-22.14a3.16,3.16,0,1,0,3.18,3.16A3.15,3.15,0,0,0,148.93,157.54Zm-42.8,0a3.16,3.16,0,1,0,3.19,3.16A3.15,3.15,0,0,0,106.13,157.54Zm84.68,0A3.16,3.16,0,1,0,194,160.7a3.15,3.15,0,0,0-3.19-3.16Zm-20.94,0a3.16,3.16,0,1,0,3.19,3.16A3.15,3.15,0,0,0,169.87,157.54Zm-42.8,0a3.16,3.16,0,1,0,3.19,3.16,3.15,3.15,0,0,0-3.19-3.16Zm-41.88,0a3.16,3.16,0,1,0,3.18,3.16,3.15,3.15,0,0,0-3.18-3.16Zm20.94-22.13a3.16,3.16,0,1,0,3.19,3.16,3.15,3.15,0,0,0-3.19-3.16Zm63.74,0a3.16,3.16,0,1,0,3.19,3.16,3.15,3.15,0,0,0-3.19-3.16Zm-42.8,0a3.16,3.16,0,1,0,3.19,3.16,3.15,3.15,0,0,0-3.19-3.16Zm21.86,0a3.16,3.16,0,1,0,3.18,3.16,3.15,3.15,0,0,0-3.18-3.16Zm-63.74,0a3.16,3.16,0,1,0,3.18,3.16,3.15,3.15,0,0,0-3.18-3.16Zm105.62,0a3.16,3.16,0,1,0,3.19,3.16,3.15,3.15,0,0,0-3.19-3.16ZM85.19,113.27a3.16,3.16,0,1,0,3.18,3.16A3.15,3.15,0,0,0,85.19,113.27Zm20.94,0a3.16,3.16,0,1,0,3.19,3.16A3.15,3.15,0,0,0,106.13,113.27Zm20.94,0a3.16,3.16,0,1,0,3.19,3.16,3.15,3.15,0,0,0-3.19-3.16Zm21.86,0a3.16,3.16,0,1,0,3.18,3.16,3.15,3.15,0,0,0-3.18-3.16Zm20.94,0a3.16,3.16,0,1,0,3.19,3.16,3.15,3.15,0,0,0-3.19-3.16ZM85.19,91.14a3.16,3.16,0,1,0,3.18,3.16,3.15,3.15,0,0,0-3.18-3.16Zm20.94,0a3.16,3.16,0,1,0,3.19,3.16,3.15,3.15,0,0,0-3.19-3.16Zm20.94,0a3.16,3.16,0,1,0,3.19,3.16,3.15,3.15,0,0,0-3.19-3.16Zm21.86,0a3.16,3.16,0,1,0,3.18,3.16,3.15,3.15,0,0,0-3.18-3.16ZM85.19,69a3.16,3.16,0,1,0,3.18,3.16A3.15,3.15,0,0,0,85.19,69Zm20.94,0a3.16,3.16,0,1,0,3.19,3.16A3.15,3.15,0,0,0,106.13,69Zm20.94,0a3.16,3.16,0,1,0,3.19,3.16A3.15,3.15,0,0,0,127.07,69Z"
                transform="translate(0 0)" />
        </g>
    </g>
</svg>