<svg xmlns="http://www.w3.org/2000/svg" viewBox="0 0 49.72 49.72"><defs><style>.cls-1{fill:#00acac;}</style></defs><title>icon-2</title><g id="Capa_2" data-name="Capa 2"><g id="Capa_1-2" data-name="Capa 1"><path class="cls-1" d="M43.82,34.43A20.17,20.17,0,0,0,15.29,5.9a19.79,19.79,0,0,0-3,24.35.85.85,0,0,1-.12,1L1.84,41.55c-2,2.05-2.53,4.92-.72,6.73l.32.32c1.81,1.81,4.68,1.33,6.73-.72L18.44,37.61a.85.85,0,0,1,1-.14,19.79,19.79,0,0,0,24.35-3ZM20.3,19a2,2,0,0,1-.81-.17,2.08,2.08,0,0,1-1.1-2.73,13.12,13.12,0,0,1,17.18-7A2.09,2.09,0,0,1,33.94,13,9,9,0,0,0,22.22,17.7,2.1,2.1,0,0,1,20.3,19ZM19,30.71a14.91,14.91,0,1,1,21.09,0A14.94,14.94,0,0,1,19,30.71Z"/></g></g></svg>