<svg xmlns="http://www.w3.org/2000/svg" viewBox="0 0 60.04 60.04"><defs><style>.cls-1{fill:#8059ad;}</style></defs><title>icon-1</title><g id="Capa_2" data-name="Capa 2"><g id="Capa_1-2" data-name="Capa 1"><path id="Shape-Copy" class="cls-1" d="M32,25.18a9.69,9.69,0,1,0-9.69-9.68A9.69,9.69,0,0,0,32,25.18ZM51.9,44.55H43.58V42.61H46l4.32-6.48V32H45.05l-2.6-3.64L45,24.48A15.44,15.44,0,0,0,47.45,16V15.5a15.5,15.5,0,1,0-31,0V16a15.43,15.43,0,0,0,1.79,7.21H14.78L6.06,18.4H0v7l1.94,3.87v5.88l1.93,2.9V41l2.31,3.46,3.5.87v1.41L12,51.33h4.47V44.26L8.72,32.63V30.42l.92-.92L22.27,43.94V50l18.35,8.16,2.84-1L48.15,60h5.11V56.91L52.3,55V53.26h5.81V50.59L60,46.71v-7h-3.3Zm-33.5-29a13.56,13.56,0,0,1,27.12,0V16a13.54,13.54,0,0,1-2.19,7.39L34.14,37.56A2.59,2.59,0,0,1,32,38.74a2.57,2.57,0,0,1-2.18-1.19L20.59,23.42A13.54,13.54,0,0,1,18.4,16Zm10.46,2.32a3.83,3.83,0,0,1-.7-1.55l-1.89.39a5.87,5.87,0,0,0,1,2.32Zm3.1-6.2V9.68a5.84,5.84,0,0,0-5.7,4.65l1.9.39A3.89,3.89,0,0,1,32,11.62Zm0-3.87a7.75,7.75,0,1,1-7.75,7.75A7.76,7.76,0,0,1,32,7.75Z"/></g></g></svg>