<svg xmlns="http://www.w3.org/2000/svg" viewBox="0 0 49.4 46.23"><defs><style>.cls-1{fill:#f69b30;fill-rule:evenodd;}</style></defs><title>icon-7</title><g id="Capa_2" data-name="Capa 2"><g id="Capa_1-2" data-name="Capa 1"><path id="Shape" class="cls-1" d="M33.41,26.46h-.66c-3.55,0-5.39-5.54-1.37-7.52a3.74,3.74,0,0,1,4.32.74,4,4,0,0,1,.22,5.53,4.18,4.18,0,0,1-2.51,1.25Zm-15.66-3.9A4.11,4.11,0,0,1,20,19a3.94,3.94,0,1,1-2.28,3.61Zm-3.53-.45v.67A3.87,3.87,0,0,1,8,25.7c-3.51-2.61-.67-8.42,3.7-6.88A4,4,0,0,1,14.22,22.11ZM10.58,3.69H38.37a7.89,7.89,0,0,1,5.54,2.87c1.37,1.56,2,3.58,2,6.5V27.69c0,2-.58,2.79-2.54,2.79V14.29A8.25,8.25,0,0,0,35.4,6c-8.82-.11-18.16,0-27,0a2.36,2.36,0,0,1,2.2-2.34ZM4.74,6.81A8.84,8.84,0,0,0,1.42,9.7,8.48,8.48,0,0,0,0,14.63V30.37a8.91,8.91,0,0,0,.66,3.35c1.24,2.8,4.09,5,7.06,5h6.94c0,2.43-1,7.48,2.65,7.48,1.66,0,3-1.65,4.28-2.7l5.05-4.27c.82-.67.38-.52,1.81-.51,2.27,0,6.79.24,9-.31s4.66-2.69,5.05-4.38c2.62,0,3.44-.06,5-1.23a5.63,5.63,0,0,0,2-4.24V11.28a11.54,11.54,0,0,0-3.51-7.85,8.78,8.78,0,0,0-1.48-1.29A13.87,13.87,0,0,0,42.6,1.08,11.42,11.42,0,0,0,38,0H10.81C7,0,4.74,3,4.74,6.81Z"/></g></g></svg>