<svg xmlns="http://www.w3.org/2000/svg" viewBox="0 0 58.18 59.62"><defs><style>.cls-1{fill:#a01346;}</style></defs><title>icon-3</title><g id="Capa_2" data-name="Capa 2"><g id="Capa_1-2" data-name="Capa 1"><path class="cls-1" d="M1.71,59.62h30.9a1.72,1.72,0,0,0,1.71-1.75V56a3.45,3.45,0,0,0-3.41-3.49V50.43a5,5,0,0,0-4.89-5H8.3a5,5,0,0,0-4.89,5v2.09A3.45,3.45,0,0,0,0,56v1.86A1.72,1.72,0,0,0,1.71,59.62ZM47.24,36l-5.45,4.2,10.26,14a3.35,3.35,0,0,0,4.78.69,3.55,3.55,0,0,0,.67-4.89L47.24,36ZM43,30.15a22.59,22.59,0,0,1-2.55,2.33,23,23,0,0,1-2.89,1.87l2.22,3,5.45-4.21-2.23-3Zm-4.6-.46A18.77,18.77,0,0,0,44,22.79L32,6.56a18.28,18.28,0,0,0-8,3.6,19,19,0,0,0-5.6,6.91L30.34,33.3A18.19,18.19,0,0,0,38.36,29.69Zm7.48-10.14a3.35,3.35,0,0,0,4.77.68,3.54,3.54,0,0,0,.67-4.89L41,1.39A3.35,3.35,0,0,0,36.25.7a3.57,3.57,0,0,0-.67,4.9l10.26,14ZM21.33,38.47a3.36,3.36,0,0,0,4.78.68,3.55,3.55,0,0,0,.67-4.89L16.52,20.31a3.35,3.35,0,0,0-4.77-.69,3.55,3.55,0,0,0-.67,4.9l10.25,14Z"/></g></g></svg>