<svg xmlns="http://www.w3.org/2000/svg" viewBox="0 0 49.46 57.59"><defs><style>.cls-1{fill:#2983bd;}</style></defs><title>icon-5</title><g id="Capa_2" data-name="Capa 2"><g id="Capa_1-2" data-name="Capa 1"><path class="cls-1" d="M14.53,29A14.5,14.5,0,1,0,0,14.49,14.51,14.51,0,0,0,14.53,29Zm32.6,1.21h-1.7a19,19,0,0,0-6.23-8.8,1.33,1.33,0,0,0-.05-.34,6.82,6.82,0,0,1,1-5.51,1.38,1.38,0,0,0-1.34-2.1,10.19,10.19,0,0,0-5.59,2.34,5.41,5.41,0,0,0-1.71,2.81A17.51,17.51,0,0,1,3.9,28.36,16.92,16.92,0,0,0,2.8,39.5h0a.15.15,0,0,0,0,.06,17,17,0,0,0,1.44,3.83A20.12,20.12,0,0,0,8,49a10.62,10.62,0,0,1,2.86,6.83v.64h0a1.25,1.25,0,0,0,1.25,1.16h7.61a1.25,1.25,0,0,0,1.25-1.25V54.47a25.14,25.14,0,0,0,3.38.23A26,26,0,0,0,27,54.56v1.78a1.24,1.24,0,0,0,1.25,1.25h7.62a1.25,1.25,0,0,0,1.26-1.25V54.47a7.45,7.45,0,0,1,2.58-5.23l.25-.21L40,49h0a18.81,18.81,0,0,0,5.55-8.48h1.6a2.3,2.3,0,0,0,2.31-2.3V32.52a2.34,2.34,0,0,0-2.33-2.31Zm-9.52.41a1.89,1.89,0,1,1,1.89-1.88A1.88,1.88,0,0,1,37.61,30.62ZM9.45,20.23l.41-1.43c.17-.55.33-.61.83-.35a8,8,0,0,0,2.75.82A3.43,3.43,0,0,0,15.23,19a1.4,1.4,0,0,0,.34-2.45,4.86,4.86,0,0,0-1-.6,24.14,24.14,0,0,1-2.8-1.25A4,4,0,0,1,9.5,11,4.16,4.16,0,0,1,12.55,7.1c.74-.27.74-.26.75-1V5.27c0-.59.12-.69.7-.71h.54c1.25,0,1.25,0,1.25,1.25,0,.87,0,.88.88,1a8.16,8.16,0,0,1,1.94.57.58.58,0,0,1,.37.76c-.16.54-.3,1.08-.48,1.61s-.32.57-.81.34a6.26,6.26,0,0,0-3.08-.61,2.06,2.06,0,0,0-.81.17,1.15,1.15,0,0,0-.29,2.06,4.85,4.85,0,0,0,1.33.75,24.2,24.2,0,0,1,2.45,1.1,4.35,4.35,0,0,1,1.4,6.62,4.6,4.6,0,0,1-2.43,1.55.68.68,0,0,0-.59.77c0,.43,0,.85,0,1.28a.54.54,0,0,1-.57.61c-.46,0-.93,0-1.39,0a.57.57,0,0,1-.6-.64c0-.31,0-.63,0-.94,0-.68,0-.72-.7-.82a8.79,8.79,0,0,1-2.46-.71c-.59-.28-.65-.44-.49-1.07Z"/></g></g></svg>