<svg xmlns="http://www.w3.org/2000/svg" viewBox="0 0 44.51 47.53"><defs><style>.cls-1{fill:#fd4557;}</style></defs><title>icon-6</title><g id="Capa_2" data-name="Capa 2"><g id="Capa_1-2" data-name="Capa 1"><path class="cls-1" d="M9.54,9.21a1.74,1.74,0,0,0,1.59-1.84V1.84A1.73,1.73,0,0,0,9.54,0,1.73,1.73,0,0,0,8,1.84V7.37A1.73,1.73,0,0,0,9.54,9.21Zm.16,25.2h.77a1.75,1.75,0,0,0,1.61-1.86v-.89h0v-.9a1.75,1.75,0,0,0-1.61-1.86H7.71A1.75,1.75,0,0,0,6.1,30.76v.9h0v.89a1.75,1.75,0,0,0,1.61,1.86h2Zm.77-7.88a1.75,1.75,0,0,0,1.61-1.86V22.88A1.75,1.75,0,0,0,10.47,21H7.71A1.75,1.75,0,0,0,6.1,22.88v1.79a1.75,1.75,0,0,0,1.61,1.86ZM36.81,42.29a1.75,1.75,0,0,0,1.6-1.86V38.64a1.75,1.75,0,0,0-1.6-1.86H34a1.75,1.75,0,0,0-1.61,1.86v1.79A1.75,1.75,0,0,0,34,42.29Zm0-7.88a1.75,1.75,0,0,0,1.6-1.86V30.76a1.75,1.75,0,0,0-1.6-1.86H34a1.75,1.75,0,0,0-1.61,1.86v1.79A1.75,1.75,0,0,0,34,34.41Zm0-7.88a1.75,1.75,0,0,0,1.6-1.86V22.88A1.75,1.75,0,0,0,36.81,21H34a1.75,1.75,0,0,0-1.61,1.86v1.79A1.75,1.75,0,0,0,34,26.53ZM28,42.29a1.75,1.75,0,0,0,1.6-1.86V38.64A1.75,1.75,0,0,0,28,36.78H25.26a1.76,1.76,0,0,0-1.61,1.86v1.79a1.76,1.76,0,0,0,1.61,1.86Zm0-7.88a1.75,1.75,0,0,0,1.6-1.86V30.76A1.75,1.75,0,0,0,28,28.9H25.26a1.76,1.76,0,0,0-1.61,1.86v1.79a1.75,1.75,0,0,0,1.61,1.86Zm0-7.88a1.75,1.75,0,0,0,1.6-1.86V22.88A1.75,1.75,0,0,0,28,21H25.26a1.76,1.76,0,0,0-1.61,1.86v1.79a1.75,1.75,0,0,0,1.61,1.86ZM19.25,42.29a1.76,1.76,0,0,0,1.61-1.86V38.64a1.76,1.76,0,0,0-1.61-1.86H16.48a1.75,1.75,0,0,0-1.6,1.86v1.79a1.75,1.75,0,0,0,1.6,1.86Zm0-7.88a1.75,1.75,0,0,0,1.61-1.86V30.76a1.76,1.76,0,0,0-1.61-1.86H16.48a1.75,1.75,0,0,0-1.6,1.86v1.79a1.75,1.75,0,0,0,1.6,1.86Zm0-7.88a1.75,1.75,0,0,0,1.61-1.86V22.88A1.76,1.76,0,0,0,19.25,21H16.48a1.75,1.75,0,0,0-1.6,1.86v1.79a1.75,1.75,0,0,0,1.6,1.86ZM10.47,42.29a1.75,1.75,0,0,0,1.61-1.86v-.89h0v-.9a1.75,1.75,0,0,0-1.61-1.86H7.71A1.75,1.75,0,0,0,6.1,38.64v.9h0v.89a1.75,1.75,0,0,0,1.61,1.86h2.76ZM42.13,5.53h-4V7.37A3.46,3.46,0,0,1,35,11.06a3.47,3.47,0,0,1-3.18-3.69V5.53H25.43V7.37a3.46,3.46,0,0,1-3.17,3.69,3.46,3.46,0,0,1-3.18-3.69V5.53H12.72V7.37a3.47,3.47,0,0,1-3.18,3.69A3.46,3.46,0,0,1,6.36,7.37V5.53h-4A2.6,2.6,0,0,0,0,8.29v6.45H44.51V8.29a2.6,2.6,0,0,0-2.38-2.76ZM0,16.44H44.51V43.18c0,2.39-1.69,4.35-3.75,4.35h-37c-2.06,0-3.75-2-3.75-4.35V16.44ZM35,9.21a1.73,1.73,0,0,0,1.59-1.84V1.84a1.61,1.61,0,1,0-3.18,0V7.37A1.74,1.74,0,0,0,35,9.21Zm-12.71,0a1.72,1.72,0,0,0,1.58-1.84V1.84A1.72,1.72,0,0,0,22.26,0a1.73,1.73,0,0,0-1.59,1.84V7.37a1.73,1.73,0,0,0,1.59,1.84Z"/></g></g></svg>