<svg xmlns="http://www.w3.org/2000/svg" viewBox="0 0 63.41 53.94"><defs><style>.cls-1{fill:#77cbf8;}</style></defs><title>icon-4</title><g id="Capa_2" data-name="Capa 2"><g id="Capa_1-2" data-name="Capa 1"><path class="cls-1" d="M54.26,29.12H49.35a12.8,12.8,0,0,1,.78,4.4V52.1a5.65,5.65,0,0,1-.32,1.84h8.11a5.5,5.5,0,0,0,5.49-5.51V38.3A9.17,9.17,0,0,0,54.26,29.12ZM51,10.29a8.26,8.26,0,1,0,8.23,8.25A8.26,8.26,0,0,0,51,10.29Zm-38.67,0a8.25,8.25,0,1,0,8.24,8.25,8.25,8.25,0,0,0-8.24-8.25ZM31.71,0a11,11,0,1,0,11,11A11,11,0,0,0,31.71,0Zm5.6,24.34H26.1A9.17,9.17,0,0,0,17,33.52V52.1a1.84,1.84,0,0,0,1.83,1.84H44.64a1.84,1.84,0,0,0,1.83-1.84V33.52a9.18,9.18,0,0,0-9.16-9.18Zm-24,9.18a12.8,12.8,0,0,1,.78-4.4H9.15A9.18,9.18,0,0,0,0,38.3V48.43a5.5,5.5,0,0,0,5.49,5.51H13.6a5.65,5.65,0,0,1-.32-1.84Z"/></g></g></svg>