<svg xmlns="http://www.w3.org/2000/svg" viewBox="0 0 222 772"><defs><style>.cls-1{fill:#c49e70;}.cls-1,.cls-2,.cls-3{fill-rule:evenodd;}.cls-2{fill:#6e1b33;}.cls-3{fill:#e6c699;}</style></defs><title>login-forma-inferior-derecho</title><g id="Capa_2" data-name="Capa 2"><g id="Capa_1-2" data-name="Capa 1"><g id="forma-inferior-derecho"><path class="cls-1" d="M222,496H0V289.42a55.55,55.55,0,0,1,55.5-55.58A55.54,55.54,0,0,0,111,178.26v-67.1A111.08,111.08,0,0,1,222,0Z"/><path id="Combined-Shape" class="cls-2" d="M136.81,314.68a3.16,3.16,0,1,1-3.18,3.16A3.17,3.17,0,0,1,136.81,314.68Zm-20.94,0a3.16,3.16,0,1,1-3.19,3.16A3.17,3.17,0,0,1,115.87,314.68Zm-20.94,0a3.16,3.16,0,1,1-3.19,3.16A3.16,3.16,0,0,1,94.93,314.68Zm-21.86,0a3.16,3.16,0,1,1-3.18,3.16A3.17,3.17,0,0,1,73.07,314.68Zm-20.94,0a3.16,3.16,0,1,1-3.19,3.16A3.17,3.17,0,0,1,52.13,314.68Zm-20.94,0A3.16,3.16,0,1,1,28,317.84,3.16,3.16,0,0,1,31.19,314.68Zm84.68-22.14a3.16,3.16,0,1,1-3.19,3.16A3.18,3.18,0,0,1,115.87,292.54Zm-42.8,0a3.16,3.16,0,1,1-3.18,3.16A3.18,3.18,0,0,1,73.07,292.54Zm63.74,0a3.16,3.16,0,1,1-3.18,3.16A3.18,3.18,0,0,1,136.81,292.54Zm-84.68,0a3.16,3.16,0,1,1-3.19,3.16A3.18,3.18,0,0,1,52.13,292.54Zm42.8,0a3.16,3.16,0,1,1-3.19,3.16A3.17,3.17,0,0,1,94.93,292.54Zm-63.74,0A3.16,3.16,0,1,1,28,295.7,3.17,3.17,0,0,1,31.19,292.54Zm105.62-22.13a3.16,3.16,0,1,1-3.18,3.16A3.17,3.17,0,0,1,136.81,270.41Zm-20.94,0a3.16,3.16,0,1,1-3.19,3.16A3.17,3.17,0,0,1,115.87,270.41Zm-20.94,0a3.16,3.16,0,1,1-3.19,3.16A3.16,3.16,0,0,1,94.93,270.41Zm-21.86,0a3.16,3.16,0,1,1-3.18,3.16A3.17,3.17,0,0,1,73.07,270.41Zm-20.94,0a3.16,3.16,0,1,1-3.19,3.16A3.17,3.17,0,0,1,52.13,270.41Zm-20.94,0A3.16,3.16,0,1,1,28,273.57,3.16,3.16,0,0,1,31.19,270.41Zm105.62-22.14a3.16,3.16,0,1,1-3.18,3.16A3.18,3.18,0,0,1,136.81,248.27Zm-20.94,0a3.16,3.16,0,1,1-3.19,3.16A3.18,3.18,0,0,1,115.87,248.27Zm-20.94,0a3.16,3.16,0,1,1-3.19,3.16A3.17,3.17,0,0,1,94.93,248.27Zm-21.86,0a3.16,3.16,0,1,1-3.18,3.16A3.18,3.18,0,0,1,73.07,248.27Zm-20.94,0a3.16,3.16,0,1,1-3.19,3.16A3.18,3.18,0,0,1,52.13,248.27Zm-20.94,0A3.16,3.16,0,1,1,28,251.43,3.17,3.17,0,0,1,31.19,248.27Zm105.62-22.13a3.16,3.16,0,1,1-3.18,3.16A3.17,3.17,0,0,1,136.81,226.14Zm-20.94,0a3.16,3.16,0,1,1-3.19,3.16A3.17,3.17,0,0,1,115.87,226.14Zm-20.94,0a3.16,3.16,0,1,1-3.19,3.16A3.16,3.16,0,0,1,94.93,226.14Zm-21.86,0a3.16,3.16,0,1,1-3.18,3.16A3.17,3.17,0,0,1,73.07,226.14Zm-20.94,0a3.16,3.16,0,1,1-3.19,3.16A3.17,3.17,0,0,1,52.13,226.14Zm-20.94,0A3.16,3.16,0,1,1,28,229.3,3.16,3.16,0,0,1,31.19,226.14ZM73.07,204a3.16,3.16,0,1,1-3.18,3.16A3.18,3.18,0,0,1,73.07,204Zm63.74,0a3.16,3.16,0,1,1-3.18,3.16A3.18,3.18,0,0,1,136.81,204Zm-41.88,0a3.16,3.16,0,1,1-3.19,3.16A3.17,3.17,0,0,1,94.93,204Zm-42.8,0a3.16,3.16,0,1,1-3.19,3.16A3.18,3.18,0,0,1,52.13,204Zm63.74,0a3.16,3.16,0,1,1-3.19,3.16A3.18,3.18,0,0,1,115.87,204Zm-84.68,0A3.16,3.16,0,1,1,28,207.16,3.17,3.17,0,0,1,31.19,204Zm105.62-24.32a3.16,3.16,0,1,1-3.18,3.16A3.17,3.17,0,0,1,136.81,179.68Zm-105.62,0A3.16,3.16,0,1,1,28,182.84,3.16,3.16,0,0,1,31.19,179.68Zm20.94,0a3.16,3.16,0,1,1-3.19,3.16A3.17,3.17,0,0,1,52.13,179.68Zm20.94,0a3.16,3.16,0,1,1-3.18,3.16A3.17,3.17,0,0,1,73.07,179.68Zm21.86,0a3.16,3.16,0,1,1-3.19,3.16A3.16,3.16,0,0,1,94.93,179.68Zm20.94,0a3.16,3.16,0,1,1-3.19,3.16A3.17,3.17,0,0,1,115.87,179.68Zm-42.8-22.14a3.16,3.16,0,1,1-3.18,3.16A3.18,3.18,0,0,1,73.07,157.54Zm42.8,0a3.16,3.16,0,1,1-3.19,3.16A3.18,3.18,0,0,1,115.87,157.54Zm-84.68,0A3.16,3.16,0,1,1,28,160.7,3.17,3.17,0,0,1,31.19,157.54Zm20.94,0a3.16,3.16,0,1,1-3.19,3.16A3.18,3.18,0,0,1,52.13,157.54Zm42.8,0a3.16,3.16,0,1,1-3.19,3.16A3.17,3.17,0,0,1,94.93,157.54Zm41.88,0a3.16,3.16,0,1,1-3.18,3.16A3.18,3.18,0,0,1,136.81,157.54Zm-20.94-22.13a3.16,3.16,0,1,1-3.19,3.16A3.17,3.17,0,0,1,115.87,135.41Zm-63.74,0a3.16,3.16,0,1,1-3.19,3.16A3.17,3.17,0,0,1,52.13,135.41Zm42.8,0a3.16,3.16,0,1,1-3.19,3.16A3.16,3.16,0,0,1,94.93,135.41Zm-21.86,0a3.16,3.16,0,1,1-3.18,3.16A3.17,3.17,0,0,1,73.07,135.41Zm63.74,0a3.16,3.16,0,1,1-3.18,3.16A3.17,3.17,0,0,1,136.81,135.41Zm-105.62,0A3.16,3.16,0,1,1,28,138.57,3.16,3.16,0,0,1,31.19,135.41Zm105.62-22.14a3.16,3.16,0,1,1-3.18,3.16A3.18,3.18,0,0,1,136.81,113.27Zm-20.94,0a3.16,3.16,0,1,1-3.19,3.16A3.18,3.18,0,0,1,115.87,113.27Zm-20.94,0a3.16,3.16,0,1,1-3.19,3.16A3.17,3.17,0,0,1,94.93,113.27Zm-21.86,0a3.16,3.16,0,1,1-3.18,3.16A3.18,3.18,0,0,1,73.07,113.27Zm-20.94,0a3.16,3.16,0,1,1-3.19,3.16A3.18,3.18,0,0,1,52.13,113.27Zm84.68-22.13a3.16,3.16,0,1,1-3.18,3.16A3.17,3.17,0,0,1,136.81,91.14Zm-20.94,0a3.16,3.16,0,1,1-3.19,3.16A3.17,3.17,0,0,1,115.87,91.14Zm-20.94,0a3.16,3.16,0,1,1-3.19,3.16A3.16,3.16,0,0,1,94.93,91.14Zm-21.86,0a3.16,3.16,0,1,1-3.18,3.16A3.17,3.17,0,0,1,73.07,91.14ZM136.81,69a3.16,3.16,0,1,1-3.18,3.16A3.18,3.18,0,0,1,136.81,69Zm-20.94,0a3.16,3.16,0,1,1-3.19,3.16A3.18,3.18,0,0,1,115.87,69ZM94.93,69a3.16,3.16,0,1,1-3.19,3.16A3.17,3.17,0,0,1,94.93,69Z"/><path class="cls-3" d="M111,112a55.81,55.81,0,0,1,56,55.62V660.76a55.81,55.81,0,0,1-56,55.62q-30.93,0-56,55.62V167.62A55.81,55.81,0,0,1,111,112Z"/></g></g></g></svg>