<svg id="Capa_1" data-name="Capa 1" xmlns="http://www.w3.org/2000/svg" xmlns:xlink="http://www.w3.org/1999/xlink"
    viewBox="0 0 222 772">
    <defs>
        <style>
            .cls-1,
            .cls-2,
            .cls-3 {
                fill-rule: evenodd;
            }

            .cls-1 {
                fill: url(#Degradado_Fondo);
            }

            .cls-2 {
                /* DEFAULT */
                fill: #25414c;
                /* MORENA, MOVCIUDADANO, PAN, PRD */
                fill: #e0e0e0;
                /* PRI */
                fill: #b54523;
            }

            .cls-3 {
                fill: url(#Degradado_Frente);
            }
        </style>
        <linearGradient id="Degradado_Fondo" x1="111" x2="111" y2="496" gradientUnits="userSpaceOnUse">
            <!-- DEFAULT -->
            <!-- <stop offset="0" stop-color="#e8e8e8" />
            <stop offset="1" stop-color="#d1d1d1" /> -->

            <!-- MORENA -->
            <!-- <stop offset="0" stop-color="#410a00" />
            <stop offset="1" stop-color="#2a0a00" /> -->

            <!-- MOVCIUDADANO -->
            <!-- <stop offset="0" stop-color="#525252" />
            <stop offset="1" stop-color="#212121" /> -->

            <!-- PAN -->
            <!-- <stop offset="0" stop-color="#005276" />
            <stop offset="1" stop-color="#005baa" /> -->

            <!-- PRD -->
            <!-- <stop offset="0" stop-color="#303030" />
            <stop offset="1" stop-color="#262626" /> -->

            <!-- PRI -->
            <stop offset="0" stop-color="#e0e0e0" />
            <stop offset="1" stop-color="#c9c9c9" />
        </linearGradient>
        <linearGradient id="Degradado_Frente" x1="111" y1="112" x2="111" y2="772" gradientUnits="userSpaceOnUse">
            <!-- DEFAULT -->
            <!-- <stop offset="0" stop-color="#d1d1d1" />
            <stop offset="1" stop-color="#878787" /> -->

            <!-- MORENA -->
            <!-- <stop offset="0" stop-color="#d40500" />
            <stop offset="1" stop-color="#663a00" /> -->

            <!-- MOVCIUDADANO -->
            <!-- <stop offset="0" stop-color="#e9ce00" />
            <stop offset="1" stop-color="#e99c00" /> -->

            <!-- PAN -->
            <!-- <stop offset="0" stop-color="#0090ff" />
            <stop offset="1" stop-color="#004cd4" /> -->

            <!-- PRD -->
            <!-- <stop offset="0" stop-color="#f2ff2a" />
            <stop offset="1" stop-color="#d4b100" /> -->

            <!-- PRI -->
            <stop offset="0" stop-color="#3a8000" />
            <stop offset="1" stop-color="#263f00" />
        </linearGradient>
    </defs>
    <title>login-forma-inferior-derecho</title>
    <g id="Capa_1-2" data-name="Capa 1-2">
        <g id="forma-inferior-derecho">
            <path class="cls-1"
                d="M222,496H0V289.42a55.55,55.55,0,0,1,55.5-55.58A55.55,55.55,0,0,0,111,178.26h0v-67.1A111.08,111.08,0,0,1,222,0h0Z"
                transform="translate(0 0)" />
            <path id="Combined-Shape" class="cls-2"
                d="M136.81,314.68a3.16,3.16,0,1,1-3.18,3.16,3.15,3.15,0,0,1,3.18-3.16Zm-20.94,0a3.16,3.16,0,1,1-3.19,3.16,3.15,3.15,0,0,1,3.19-3.16Zm-20.94,0a3.16,3.16,0,1,1-3.19,3.16,3.15,3.15,0,0,1,3.19-3.16Zm-21.86,0a3.16,3.16,0,1,1-3.18,3.16,3.15,3.15,0,0,1,3.18-3.16Zm-20.94,0a3.16,3.16,0,1,1-3.19,3.16,3.15,3.15,0,0,1,3.19-3.16Zm-20.94,0A3.16,3.16,0,1,1,28,317.84a3.15,3.15,0,0,1,3.19-3.16Zm84.68-22.14a3.16,3.16,0,1,1-3.19,3.16,3.15,3.15,0,0,1,3.19-3.16Zm-42.8,0a3.16,3.16,0,1,1-3.18,3.16,3.15,3.15,0,0,1,3.18-3.16Zm63.74,0a3.16,3.16,0,1,1-3.18,3.16,3.15,3.15,0,0,1,3.18-3.16Zm-84.68,0a3.16,3.16,0,1,1-3.19,3.16,3.15,3.15,0,0,1,3.19-3.16Zm42.8,0a3.16,3.16,0,1,1-3.19,3.16,3.15,3.15,0,0,1,3.19-3.16Zm-63.74,0A3.16,3.16,0,1,1,28,295.7a3.15,3.15,0,0,1,3.19-3.16Zm105.62-22.13a3.16,3.16,0,1,1-3.18,3.16,3.15,3.15,0,0,1,3.18-3.16Zm-20.94,0a3.16,3.16,0,1,1-3.19,3.16,3.15,3.15,0,0,1,3.19-3.16Zm-20.94,0a3.16,3.16,0,1,1-3.19,3.16,3.15,3.15,0,0,1,3.19-3.16Zm-21.86,0a3.16,3.16,0,1,1-3.18,3.16,3.15,3.15,0,0,1,3.18-3.16Zm-20.94,0a3.16,3.16,0,1,1-3.19,3.16,3.15,3.15,0,0,1,3.19-3.16Zm-20.94,0A3.16,3.16,0,1,1,28,273.57a3.15,3.15,0,0,1,3.19-3.16Zm105.62-22.14a3.16,3.16,0,1,1-3.18,3.16,3.15,3.15,0,0,1,3.18-3.16Zm-20.94,0a3.16,3.16,0,1,1-3.19,3.16,3.15,3.15,0,0,1,3.19-3.16Zm-20.94,0a3.16,3.16,0,1,1-3.19,3.16,3.15,3.15,0,0,1,3.19-3.16Zm-21.86,0a3.16,3.16,0,1,1-3.18,3.16,3.15,3.15,0,0,1,3.18-3.16Zm-20.94,0a3.16,3.16,0,1,1-3.19,3.16,3.15,3.15,0,0,1,3.19-3.16Zm-20.94,0A3.16,3.16,0,1,1,28,251.43a3.15,3.15,0,0,1,3.19-3.16Zm105.62-22.13a3.16,3.16,0,1,1-3.18,3.16,3.15,3.15,0,0,1,3.18-3.16Zm-20.94,0a3.16,3.16,0,1,1-3.19,3.16,3.15,3.15,0,0,1,3.19-3.16Zm-20.94,0a3.16,3.16,0,1,1-3.19,3.16,3.15,3.15,0,0,1,3.19-3.16Zm-21.86,0a3.16,3.16,0,1,1-3.18,3.16,3.15,3.15,0,0,1,3.18-3.16Zm-20.94,0a3.16,3.16,0,1,1-3.19,3.16,3.15,3.15,0,0,1,3.19-3.16Zm-20.94,0A3.16,3.16,0,1,1,28,229.3a3.15,3.15,0,0,1,3.19-3.16ZM73.07,204a3.16,3.16,0,1,1-3.18,3.16A3.15,3.15,0,0,1,73.07,204Zm63.74,0a3.16,3.16,0,1,1-3.18,3.16A3.15,3.15,0,0,1,136.81,204Zm-41.88,0a3.16,3.16,0,1,1-3.19,3.16A3.15,3.15,0,0,1,94.93,204Zm-42.8,0a3.16,3.16,0,1,1-3.19,3.16A3.15,3.15,0,0,1,52.13,204Zm63.74,0a3.16,3.16,0,1,1-3.19,3.16A3.15,3.15,0,0,1,115.87,204Zm-84.68,0A3.16,3.16,0,1,1,28,207.16,3.15,3.15,0,0,1,31.19,204Zm105.62-24.32a3.16,3.16,0,1,1-3.18,3.16,3.15,3.15,0,0,1,3.18-3.16Zm-105.62,0A3.16,3.16,0,1,1,28,182.84a3.15,3.15,0,0,1,3.19-3.16Zm20.94,0a3.16,3.16,0,1,1-3.19,3.16,3.15,3.15,0,0,1,3.19-3.16Zm20.94,0a3.16,3.16,0,1,1-3.18,3.16,3.15,3.15,0,0,1,3.18-3.16Zm21.86,0a3.16,3.16,0,1,1-3.19,3.16,3.15,3.15,0,0,1,3.19-3.16Zm20.94,0a3.16,3.16,0,1,1-3.19,3.16,3.15,3.15,0,0,1,3.19-3.16Zm-42.8-22.14a3.16,3.16,0,1,1-3.18,3.16A3.15,3.15,0,0,1,73.07,157.54Zm42.8,0a3.16,3.16,0,1,1-3.19,3.16A3.15,3.15,0,0,1,115.87,157.54Zm-84.68,0A3.16,3.16,0,1,1,28,160.7a3.15,3.15,0,0,1,3.19-3.16Zm20.94,0a3.16,3.16,0,1,1-3.19,3.16,3.15,3.15,0,0,1,3.19-3.16Zm42.8,0a3.16,3.16,0,1,1-3.19,3.16,3.15,3.15,0,0,1,3.19-3.16Zm41.88,0a3.16,3.16,0,1,1-3.18,3.16,3.15,3.15,0,0,1,3.18-3.16Zm-20.94-22.13a3.16,3.16,0,1,1-3.19,3.16,3.15,3.15,0,0,1,3.19-3.16Zm-63.74,0a3.16,3.16,0,1,1-3.19,3.16,3.15,3.15,0,0,1,3.19-3.16Zm42.8,0a3.16,3.16,0,1,1-3.19,3.16,3.15,3.15,0,0,1,3.19-3.16Zm-21.86,0a3.16,3.16,0,1,1-3.18,3.16,3.15,3.15,0,0,1,3.18-3.16Zm63.74,0a3.16,3.16,0,1,1-3.18,3.16,3.15,3.15,0,0,1,3.18-3.16Zm-105.62,0A3.16,3.16,0,1,1,28,138.57a3.15,3.15,0,0,1,3.19-3.16Zm105.62-22.14a3.16,3.16,0,1,1-3.18,3.16,3.15,3.15,0,0,1,3.18-3.16Zm-20.94,0a3.16,3.16,0,1,1-3.19,3.16A3.15,3.15,0,0,1,115.87,113.27Zm-20.94,0a3.16,3.16,0,1,1-3.19,3.16,3.15,3.15,0,0,1,3.19-3.16Zm-21.86,0a3.16,3.16,0,1,1-3.18,3.16A3.15,3.15,0,0,1,73.07,113.27Zm-20.94,0a3.16,3.16,0,1,1-3.19,3.16A3.15,3.15,0,0,1,52.13,113.27Zm84.68-22.13a3.16,3.16,0,1,1-3.18,3.16,3.15,3.15,0,0,1,3.18-3.16Zm-20.94,0a3.16,3.16,0,1,1-3.19,3.16,3.15,3.15,0,0,1,3.19-3.16Zm-20.94,0a3.16,3.16,0,1,1-3.19,3.16,3.15,3.15,0,0,1,3.19-3.16Zm-21.86,0a3.16,3.16,0,1,1-3.18,3.16,3.15,3.15,0,0,1,3.18-3.16ZM136.81,69a3.16,3.16,0,1,1-3.18,3.16A3.15,3.15,0,0,1,136.81,69Zm-20.94,0a3.16,3.16,0,1,1-3.19,3.16A3.15,3.15,0,0,1,115.87,69ZM94.93,69a3.16,3.16,0,1,1-3.19,3.16A3.15,3.15,0,0,1,94.93,69Z"
                transform="translate(0 0)" />
            <path class="cls-3"
                d="M111,112a55.81,55.81,0,0,1,56,55.62h0V660.76a55.81,55.81,0,0,1-56,55.62h0q-30.93,0-56,55.62V167.62A55.81,55.81,0,0,1,111,112Z"
                transform="translate(0 0)" />
        </g>
    </g>
</svg>