<svg id="Capa_1" data-name="Capa 1" xmlns="http://www.w3.org/2000/svg" xmlns:xlink="http://www.w3.org/1999/xlink"
    viewBox="0 0 637 760">
    <defs>
        <style>
            .cls-1 {
                /* DEFAULT */
                fill: #828282;
                /* MORENA */
                fill: #cc621b;
                /* MOVCIUDADANO */
                fill: #d19c18;
                /* PAN */
                fill: #196fce;
                /* PRD */
                fill: #d19c18;
                /* PRI */
                
                fill-rule: evenodd;
            }

            .cls-2 {
                fill: url(#Degradado_Forma_Inferior_Izquierda);
            }
        </style>
        <linearGradient id="Degradado_Forma_Inferior_Izquierda" x1="318.5" y1="140" x2="318.5" y2="760"
            gradientUnits="userSpaceOnUse">
            <!-- DEFAULT -->
            <!-- <stop offset="0" stop-color="#878787" />
            <stop offset="1" stop-color="#242424" /> -->

            <!-- MORENA -->
            <!-- <stop offset="0" stop-color="#d45e00" />
            <stop offset="1" stop-color="#6a2600" /> -->

            <!-- MOVCIUDADANO -->
            <!-- <stop offset="0" stop-color="#ffc757" />
            <stop offset="1" stop-color="#d47000" /> -->

            <!-- PAN -->
            <!-- <stop offset="0" stop-color="#0082ff" />
            <stop offset="1" stop-color="#00293f" /> -->

            <!-- PRD -->
            <!-- <stop offset="0" stop-color="#ffc700" />
            <stop offset="1" stop-color="#949100" /> -->

            <!-- PRI -->
            <stop offset="0" stop-color="#aa2500" />
            <stop offset="1" stop-color="#4b2200" />
        </linearGradient>
    </defs>
    <title>login-forma-inferior-izquierda</title>
    <g id="Capa_1-2" data-name="Capa 1-2">
        <path id="puntos-lateral-izquierdo" class="cls-1"
            d="M419.81,245.68a3.16,3.16,0,1,1-3.18,3.16,3.15,3.15,0,0,1,3.18-3.16Zm-20.94,0a3.16,3.16,0,1,1-3.19,3.16,3.15,3.15,0,0,1,3.19-3.16Zm-20.94,0a3.16,3.16,0,1,1-3.19,3.16,3.15,3.15,0,0,1,3.19-3.16Zm-21.86,0a3.16,3.16,0,1,1-3.18,3.16,3.15,3.15,0,0,1,3.18-3.16Zm-20.94,0a3.16,3.16,0,1,1-3.19,3.16,3.15,3.15,0,0,1,3.19-3.16Zm-20.94,0a3.16,3.16,0,1,1-3.19,3.16,3.15,3.15,0,0,1,3.19-3.16Zm84.68-22.14a3.16,3.16,0,1,1-3.19,3.16A3.15,3.15,0,0,1,398.87,223.54Zm-42.8,0a3.16,3.16,0,1,1-3.18,3.16A3.15,3.15,0,0,1,356.07,223.54Zm63.74,0a3.16,3.16,0,1,1-3.18,3.16A3.15,3.15,0,0,1,419.81,223.54Zm-84.68,0a3.16,3.16,0,1,1-3.19,3.16A3.15,3.15,0,0,1,335.13,223.54Zm42.8,0a3.16,3.16,0,1,1-3.19,3.16,3.15,3.15,0,0,1,3.19-3.16Zm-63.74,0A3.16,3.16,0,1,1,311,226.7a3.15,3.15,0,0,1,3.19-3.16Zm105.62-22.13a3.16,3.16,0,1,1-3.18,3.16,3.15,3.15,0,0,1,3.18-3.16Zm-20.94,0a3.16,3.16,0,1,1-3.19,3.16,3.15,3.15,0,0,1,3.19-3.16Zm-20.94,0a3.16,3.16,0,1,1-3.19,3.16,3.15,3.15,0,0,1,3.19-3.16Zm-21.86,0a3.16,3.16,0,1,1-3.18,3.16,3.15,3.15,0,0,1,3.18-3.16Zm-20.94,0a3.16,3.16,0,1,1-3.19,3.16,3.15,3.15,0,0,1,3.19-3.16Zm-20.94,0a3.16,3.16,0,1,1-3.19,3.16,3.15,3.15,0,0,1,3.19-3.16Zm105.62-22.14a3.16,3.16,0,1,1-3.18,3.16,3.15,3.15,0,0,1,3.18-3.16Zm-20.94,0a3.16,3.16,0,1,1-3.19,3.16,3.15,3.15,0,0,1,3.19-3.16Zm-20.94,0a3.16,3.16,0,1,1-3.19,3.16,3.15,3.15,0,0,1,3.19-3.16Zm-21.86,0a3.16,3.16,0,1,1-3.18,3.16,3.15,3.15,0,0,1,3.18-3.16Zm-20.94,0a3.16,3.16,0,1,1-3.19,3.16,3.15,3.15,0,0,1,3.19-3.16Zm-20.94,0a3.16,3.16,0,1,1-3.19,3.16,3.15,3.15,0,0,1,3.19-3.16Zm105.62-22.13a3.16,3.16,0,1,1-3.18,3.16,3.15,3.15,0,0,1,3.18-3.16Zm-20.94,0a3.16,3.16,0,1,1-3.19,3.16,3.15,3.15,0,0,1,3.19-3.16Zm-20.94,0a3.16,3.16,0,1,1-3.19,3.16,3.15,3.15,0,0,1,3.19-3.16Zm-21.86,0a3.16,3.16,0,1,1-3.18,3.16,3.15,3.15,0,0,1,3.18-3.16Zm-20.94,0a3.16,3.16,0,1,1-3.19,3.16,3.15,3.15,0,0,1,3.19-3.16Zm-20.94,0A3.16,3.16,0,1,1,311,160.3a3.15,3.15,0,0,1,3.19-3.16ZM356.07,135a3.16,3.16,0,1,1-3.18,3.16A3.15,3.15,0,0,1,356.07,135Zm63.74,0a3.16,3.16,0,1,1-3.18,3.16A3.15,3.15,0,0,1,419.81,135Zm-41.88,0a3.16,3.16,0,1,1-3.19,3.16,3.15,3.15,0,0,1,3.19-3.16Zm-42.8,0a3.16,3.16,0,1,1-3.19,3.16A3.15,3.15,0,0,1,335.13,135Zm63.74,0a3.16,3.16,0,1,1-3.19,3.16A3.15,3.15,0,0,1,398.87,135Zm-84.68,0a3.16,3.16,0,1,1-3.19,3.16,3.15,3.15,0,0,1,3.19-3.16Zm105.62-24.32a3.16,3.16,0,1,1-3.18,3.16,3.15,3.15,0,0,1,3.18-3.16Zm-105.62,0a3.16,3.16,0,1,1-3.19,3.16,3.15,3.15,0,0,1,3.19-3.16Zm20.94,0a3.16,3.16,0,1,1-3.19,3.16,3.15,3.15,0,0,1,3.19-3.16Zm20.94,0a3.16,3.16,0,1,1-3.18,3.16,3.15,3.15,0,0,1,3.18-3.16Zm21.86,0a3.16,3.16,0,1,1-3.19,3.16,3.15,3.15,0,0,1,3.19-3.16Zm20.94,0a3.16,3.16,0,1,1-3.19,3.16,3.15,3.15,0,0,1,3.19-3.16Zm-42.8-22.14a3.16,3.16,0,1,1-3.18,3.16A3.15,3.15,0,0,1,356.07,88.54Zm42.8,0a3.16,3.16,0,1,1-3.19,3.16A3.15,3.15,0,0,1,398.87,88.54Zm-84.68,0A3.16,3.16,0,1,1,311,91.7a3.15,3.15,0,0,1,3.19-3.16Zm20.94,0a3.16,3.16,0,1,1-3.19,3.16A3.15,3.15,0,0,1,335.13,88.54Zm42.8,0a3.16,3.16,0,1,1-3.19,3.16,3.15,3.15,0,0,1,3.19-3.16Zm41.88,0a3.16,3.16,0,1,1-3.18,3.16A3.15,3.15,0,0,1,419.81,88.54ZM398.87,66.41a3.16,3.16,0,1,1-3.19,3.16,3.15,3.15,0,0,1,3.19-3.16Zm-63.74,0a3.16,3.16,0,1,1-3.19,3.16,3.15,3.15,0,0,1,3.19-3.16Zm42.8,0a3.16,3.16,0,1,1-3.19,3.16,3.15,3.15,0,0,1,3.19-3.16Zm-21.86,0a3.16,3.16,0,1,1-3.18,3.16,3.15,3.15,0,0,1,3.18-3.16Zm63.74,0a3.16,3.16,0,1,1-3.18,3.16,3.15,3.15,0,0,1,3.18-3.16Zm-105.62,0A3.16,3.16,0,1,1,311,69.57a3.15,3.15,0,0,1,3.19-3.16ZM419.81,44.27a3.16,3.16,0,1,1-3.18,3.16A3.15,3.15,0,0,1,419.81,44.27Zm-20.94,0a3.16,3.16,0,1,1-3.19,3.16A3.15,3.15,0,0,1,398.87,44.27Zm-20.94,0a3.16,3.16,0,1,1-3.19,3.16,3.15,3.15,0,0,1,3.19-3.16Zm-21.86,0a3.16,3.16,0,1,1-3.18,3.16A3.15,3.15,0,0,1,356.07,44.27Zm-20.94,0a3.16,3.16,0,1,1-3.19,3.16A3.15,3.15,0,0,1,335.13,44.27Zm84.68-22.13a3.16,3.16,0,1,1-3.18,3.16,3.15,3.15,0,0,1,3.18-3.16Zm-20.94,0a3.16,3.16,0,1,1-3.19,3.16,3.15,3.15,0,0,1,3.19-3.16Zm-20.94,0a3.16,3.16,0,1,1-3.19,3.16,3.15,3.15,0,0,1,3.19-3.16Zm-21.86,0a3.16,3.16,0,1,1-3.18,3.16,3.15,3.15,0,0,1,3.18-3.16ZM419.81,0a3.19,3.19,0,1,1-3.19,3.22A3.18,3.18,0,0,1,419.81,0ZM398.87,0a3.18,3.18,0,1,1-3.19,3.16A3.18,3.18,0,0,1,398.87,0ZM377.93,0a3.16,3.16,0,1,1-3.19,3.16A3.15,3.15,0,0,1,377.93,0Z"
            transform="translate(0 0)" />
        <rect id="Forma-cuadrado" class="cls-2" y="140" width="637" height="620" rx="143" />
    </g>
</svg>