<svg xmlns="http://www.w3.org/2000/svg" viewBox="0 0 112 252"><defs><style>


/* PAN */
/*.cls-1{fill:#1e50a9;fill-rule:evenodd;}*/

/* PRI */
/*.cls-1{fill:#c00301;fill-rule:evenodd;}*/

/* MOVIMIENTO */
.cls-1{fill:#ff8201;fill-rule:evenodd;}

/* MORENA */
/*.cls-1{fill:#b92207;fill-rule:evenodd;}*/

</style></defs><title>login-puntos-superior-derecho</title><g id="Capa_2" data-name="Capa 2"><g id="Capa_1-2" data-name="Capa 1"><path id="Puntos-superior-derecho" class="cls-1" d="M108.81,245.68a3.16,3.16,0,1,1-3.18,3.16A3.17,3.17,0,0,1,108.81,245.68Zm-20.94,0a3.16,3.16,0,1,1-3.19,3.16A3.17,3.17,0,0,1,87.87,245.68Zm-20.94,0a3.16,3.16,0,1,1-3.19,3.16A3.16,3.16,0,0,1,66.93,245.68Zm-21.86,0a3.16,3.16,0,1,1-3.18,3.16A3.17,3.17,0,0,1,45.07,245.68Zm-20.94,0a3.16,3.16,0,1,1-3.19,3.16A3.17,3.17,0,0,1,24.13,245.68Zm-20.94,0A3.16,3.16,0,1,1,0,248.84,3.17,3.17,0,0,1,3.19,245.68Zm84.68-22.14a3.16,3.16,0,1,1-3.19,3.16A3.18,3.18,0,0,1,87.87,223.54Zm-42.8,0a3.16,3.16,0,1,1-3.18,3.16A3.18,3.18,0,0,1,45.07,223.54Zm63.74,0a3.16,3.16,0,1,1-3.18,3.16A3.18,3.18,0,0,1,108.81,223.54Zm-84.68,0a3.16,3.16,0,1,1-3.19,3.16A3.18,3.18,0,0,1,24.13,223.54Zm42.8,0a3.16,3.16,0,1,1-3.19,3.16A3.17,3.17,0,0,1,66.93,223.54Zm-63.74,0A3.16,3.16,0,1,1,0,226.7,3.17,3.17,0,0,1,3.19,223.54Zm105.62-22.13a3.16,3.16,0,1,1-3.18,3.16A3.17,3.17,0,0,1,108.81,201.41Zm-20.94,0a3.16,3.16,0,1,1-3.19,3.16A3.17,3.17,0,0,1,87.87,201.41Zm-20.94,0a3.16,3.16,0,1,1-3.19,3.16A3.16,3.16,0,0,1,66.93,201.41Zm-21.86,0a3.16,3.16,0,1,1-3.18,3.16A3.17,3.17,0,0,1,45.07,201.41Zm-20.94,0a3.16,3.16,0,1,1-3.19,3.16A3.17,3.17,0,0,1,24.13,201.41Zm-20.94,0A3.16,3.16,0,1,1,0,204.57,3.17,3.17,0,0,1,3.19,201.41Zm105.62-22.14a3.16,3.16,0,1,1-3.18,3.16A3.18,3.18,0,0,1,108.81,179.27Zm-20.94,0a3.16,3.16,0,1,1-3.19,3.16A3.18,3.18,0,0,1,87.87,179.27Zm-20.94,0a3.16,3.16,0,1,1-3.19,3.16A3.17,3.17,0,0,1,66.93,179.27Zm-21.86,0a3.16,3.16,0,1,1-3.18,3.16A3.18,3.18,0,0,1,45.07,179.27Zm-20.94,0a3.16,3.16,0,1,1-3.19,3.16A3.18,3.18,0,0,1,24.13,179.27Zm-20.94,0A3.16,3.16,0,1,1,0,182.43,3.17,3.17,0,0,1,3.19,179.27Zm105.62-22.13a3.16,3.16,0,1,1-3.18,3.16A3.17,3.17,0,0,1,108.81,157.14Zm-20.94,0a3.16,3.16,0,1,1-3.19,3.16A3.17,3.17,0,0,1,87.87,157.14Zm-20.94,0a3.16,3.16,0,1,1-3.19,3.16A3.16,3.16,0,0,1,66.93,157.14Zm-21.86,0a3.16,3.16,0,1,1-3.18,3.16A3.17,3.17,0,0,1,45.07,157.14Zm-20.94,0a3.16,3.16,0,1,1-3.19,3.16A3.17,3.17,0,0,1,24.13,157.14Zm-20.94,0A3.16,3.16,0,1,1,0,160.3,3.17,3.17,0,0,1,3.19,157.14ZM45.07,135a3.16,3.16,0,1,1-3.18,3.16A3.18,3.18,0,0,1,45.07,135Zm63.74,0a3.16,3.16,0,1,1-3.18,3.16A3.18,3.18,0,0,1,108.81,135Zm-41.88,0a3.16,3.16,0,1,1-3.19,3.16A3.17,3.17,0,0,1,66.93,135Zm-42.8,0a3.16,3.16,0,1,1-3.19,3.16A3.18,3.18,0,0,1,24.13,135Zm63.74,0a3.16,3.16,0,1,1-3.19,3.16A3.18,3.18,0,0,1,87.87,135ZM3.19,135A3.16,3.16,0,1,1,0,138.16,3.17,3.17,0,0,1,3.19,135Zm105.62-24.32a3.16,3.16,0,1,1-3.18,3.16A3.17,3.17,0,0,1,108.81,110.68Zm-105.62,0A3.16,3.16,0,1,1,0,113.84,3.17,3.17,0,0,1,3.19,110.68Zm20.94,0a3.16,3.16,0,1,1-3.19,3.16A3.17,3.17,0,0,1,24.13,110.68Zm20.94,0a3.16,3.16,0,1,1-3.18,3.16A3.17,3.17,0,0,1,45.07,110.68Zm21.86,0a3.16,3.16,0,1,1-3.19,3.16A3.16,3.16,0,0,1,66.93,110.68Zm20.94,0a3.16,3.16,0,1,1-3.19,3.16A3.17,3.17,0,0,1,87.87,110.68ZM45.07,88.54a3.16,3.16,0,1,1-3.18,3.16A3.18,3.18,0,0,1,45.07,88.54Zm42.8,0a3.16,3.16,0,1,1-3.19,3.16A3.18,3.18,0,0,1,87.87,88.54Zm-84.68,0A3.16,3.16,0,1,1,0,91.7,3.17,3.17,0,0,1,3.19,88.54Zm20.94,0a3.16,3.16,0,1,1-3.19,3.16A3.18,3.18,0,0,1,24.13,88.54Zm42.8,0a3.16,3.16,0,1,1-3.19,3.16A3.17,3.17,0,0,1,66.93,88.54Zm41.88,0a3.16,3.16,0,1,1-3.18,3.16A3.18,3.18,0,0,1,108.81,88.54ZM87.87,66.41a3.16,3.16,0,1,1-3.19,3.16A3.17,3.17,0,0,1,87.87,66.41Zm-63.74,0a3.16,3.16,0,1,1-3.19,3.16A3.17,3.17,0,0,1,24.13,66.41Zm42.8,0a3.16,3.16,0,1,1-3.19,3.16A3.16,3.16,0,0,1,66.93,66.41Zm-21.86,0a3.16,3.16,0,1,1-3.18,3.16A3.17,3.17,0,0,1,45.07,66.41Zm63.74,0a3.16,3.16,0,1,1-3.18,3.16A3.17,3.17,0,0,1,108.81,66.41Zm-105.62,0A3.16,3.16,0,1,1,0,69.57,3.17,3.17,0,0,1,3.19,66.41ZM108.81,44.27a3.16,3.16,0,1,1-3.18,3.16A3.18,3.18,0,0,1,108.81,44.27Zm-20.94,0a3.16,3.16,0,1,1-3.19,3.16A3.18,3.18,0,0,1,87.87,44.27Zm-20.94,0a3.16,3.16,0,1,1-3.19,3.16A3.17,3.17,0,0,1,66.93,44.27Zm-21.86,0a3.16,3.16,0,1,1-3.18,3.16A3.18,3.18,0,0,1,45.07,44.27Zm-20.94,0a3.16,3.16,0,1,1-3.19,3.16A3.18,3.18,0,0,1,24.13,44.27Zm84.68-22.13a3.16,3.16,0,1,1-3.18,3.16A3.17,3.17,0,0,1,108.81,22.14Zm-20.94,0a3.16,3.16,0,1,1-3.19,3.16A3.17,3.17,0,0,1,87.87,22.14Zm-20.94,0a3.16,3.16,0,1,1-3.19,3.16A3.16,3.16,0,0,1,66.93,22.14Zm-21.86,0a3.16,3.16,0,1,1-3.18,3.16A3.17,3.17,0,0,1,45.07,22.14ZM108.81,0A3.18,3.18,0,0,1,112,3.16,3.19,3.19,0,1,1,108.81,0ZM87.87,0a3.18,3.18,0,0,1,3.19,3.16,3.19,3.19,0,0,1-6.38,0A3.18,3.18,0,0,1,87.87,0ZM66.93,0a3.16,3.16,0,1,1-3.19,3.16A3.17,3.17,0,0,1,66.93,0Z"/></g></g></svg>