<svg xmlns="http://www.w3.org/2000/svg" viewBox="0 0 637 760"><defs><style>

/* PAN */
/*.cls-1{fill:#1e50a9;}
.cls-2{fill:#fff;}*/

/* PRI */
.cls-1{fill:#ececec;}
.cls-2{fill:#c00301;}


</style></defs><title>login-forma-inferior-izquierda</title><g id="Capa_2" data-name="Capa 2"><g id="Capa_1-2" data-name="Capa 1"><path id="puntos-lateral-izquierdo" class="cls-1" d="M419.81,245.68a3.16,3.16,0,1,1-3.18,3.16A3.17,3.17,0,0,1,419.81,245.68Zm-20.94,0a3.16,3.16,0,1,1-3.19,3.16A3.17,3.17,0,0,1,398.87,245.68Zm-20.94,0a3.16,3.16,0,1,1-3.19,3.16A3.16,3.16,0,0,1,377.93,245.68Zm-21.86,0a3.16,3.16,0,1,1-3.18,3.16A3.17,3.17,0,0,1,356.07,245.68Zm-20.94,0a3.16,3.16,0,1,1-3.19,3.16A3.17,3.17,0,0,1,335.13,245.68Zm-20.94,0a3.16,3.16,0,1,1-3.19,3.16A3.16,3.16,0,0,1,314.19,245.68Zm84.68-22.14a3.16,3.16,0,1,1-3.19,3.16A3.18,3.18,0,0,1,398.87,223.54Zm-42.8,0a3.16,3.16,0,1,1-3.18,3.16A3.18,3.18,0,0,1,356.07,223.54Zm63.74,0a3.16,3.16,0,1,1-3.18,3.16A3.18,3.18,0,0,1,419.81,223.54Zm-84.68,0a3.16,3.16,0,1,1-3.19,3.16A3.18,3.18,0,0,1,335.13,223.54Zm42.8,0a3.16,3.16,0,1,1-3.19,3.16A3.17,3.17,0,0,1,377.93,223.54Zm-63.74,0A3.16,3.16,0,1,1,311,226.7,3.17,3.17,0,0,1,314.19,223.54Zm105.62-22.13a3.16,3.16,0,1,1-3.18,3.16A3.17,3.17,0,0,1,419.81,201.41Zm-20.94,0a3.16,3.16,0,1,1-3.19,3.16A3.17,3.17,0,0,1,398.87,201.41Zm-20.94,0a3.16,3.16,0,1,1-3.19,3.16A3.16,3.16,0,0,1,377.93,201.41Zm-21.86,0a3.16,3.16,0,1,1-3.18,3.16A3.17,3.17,0,0,1,356.07,201.41Zm-20.94,0a3.16,3.16,0,1,1-3.19,3.16A3.17,3.17,0,0,1,335.13,201.41Zm-20.94,0a3.16,3.16,0,1,1-3.19,3.16A3.16,3.16,0,0,1,314.19,201.41Zm105.62-22.14a3.16,3.16,0,1,1-3.18,3.16A3.18,3.18,0,0,1,419.81,179.27Zm-20.94,0a3.16,3.16,0,1,1-3.19,3.16A3.18,3.18,0,0,1,398.87,179.27Zm-20.94,0a3.16,3.16,0,1,1-3.19,3.16A3.17,3.17,0,0,1,377.93,179.27Zm-21.86,0a3.16,3.16,0,1,1-3.18,3.16A3.18,3.18,0,0,1,356.07,179.27Zm-20.94,0a3.16,3.16,0,1,1-3.19,3.16A3.18,3.18,0,0,1,335.13,179.27Zm-20.94,0a3.16,3.16,0,1,1-3.19,3.16A3.17,3.17,0,0,1,314.19,179.27Zm105.62-22.13a3.16,3.16,0,1,1-3.18,3.16A3.17,3.17,0,0,1,419.81,157.14Zm-20.94,0a3.16,3.16,0,1,1-3.19,3.16A3.17,3.17,0,0,1,398.87,157.14Zm-20.94,0a3.16,3.16,0,1,1-3.19,3.16A3.16,3.16,0,0,1,377.93,157.14Zm-21.86,0a3.16,3.16,0,1,1-3.18,3.16A3.17,3.17,0,0,1,356.07,157.14Zm-20.94,0a3.16,3.16,0,1,1-3.19,3.16A3.17,3.17,0,0,1,335.13,157.14Zm-20.94,0A3.16,3.16,0,1,1,311,160.3,3.16,3.16,0,0,1,314.19,157.14ZM356.07,135a3.16,3.16,0,1,1-3.18,3.16A3.18,3.18,0,0,1,356.07,135Zm63.74,0a3.16,3.16,0,1,1-3.18,3.16A3.18,3.18,0,0,1,419.81,135Zm-41.88,0a3.16,3.16,0,1,1-3.19,3.16A3.17,3.17,0,0,1,377.93,135Zm-42.8,0a3.16,3.16,0,1,1-3.19,3.16A3.18,3.18,0,0,1,335.13,135Zm63.74,0a3.16,3.16,0,1,1-3.19,3.16A3.18,3.18,0,0,1,398.87,135Zm-84.68,0a3.16,3.16,0,1,1-3.19,3.16A3.17,3.17,0,0,1,314.19,135Zm105.62-24.32a3.16,3.16,0,1,1-3.18,3.16A3.17,3.17,0,0,1,419.81,110.68Zm-105.62,0a3.16,3.16,0,1,1-3.19,3.16A3.16,3.16,0,0,1,314.19,110.68Zm20.94,0a3.16,3.16,0,1,1-3.19,3.16A3.17,3.17,0,0,1,335.13,110.68Zm20.94,0a3.16,3.16,0,1,1-3.18,3.16A3.17,3.17,0,0,1,356.07,110.68Zm21.86,0a3.16,3.16,0,1,1-3.19,3.16A3.16,3.16,0,0,1,377.93,110.68Zm20.94,0a3.16,3.16,0,1,1-3.19,3.16A3.17,3.17,0,0,1,398.87,110.68Zm-42.8-22.14a3.16,3.16,0,1,1-3.18,3.16A3.18,3.18,0,0,1,356.07,88.54Zm42.8,0a3.16,3.16,0,1,1-3.19,3.16A3.18,3.18,0,0,1,398.87,88.54Zm-84.68,0A3.16,3.16,0,1,1,311,91.7,3.17,3.17,0,0,1,314.19,88.54Zm20.94,0a3.16,3.16,0,1,1-3.19,3.16A3.18,3.18,0,0,1,335.13,88.54Zm42.8,0a3.16,3.16,0,1,1-3.19,3.16A3.17,3.17,0,0,1,377.93,88.54Zm41.88,0a3.16,3.16,0,1,1-3.18,3.16A3.18,3.18,0,0,1,419.81,88.54ZM398.87,66.41a3.16,3.16,0,1,1-3.19,3.16A3.17,3.17,0,0,1,398.87,66.41Zm-63.74,0a3.16,3.16,0,1,1-3.19,3.16A3.17,3.17,0,0,1,335.13,66.41Zm42.8,0a3.16,3.16,0,1,1-3.19,3.16A3.16,3.16,0,0,1,377.93,66.41Zm-21.86,0a3.16,3.16,0,1,1-3.18,3.16A3.17,3.17,0,0,1,356.07,66.41Zm63.74,0a3.16,3.16,0,1,1-3.18,3.16A3.17,3.17,0,0,1,419.81,66.41Zm-105.62,0A3.16,3.16,0,1,1,311,69.57,3.16,3.16,0,0,1,314.19,66.41ZM419.81,44.27a3.16,3.16,0,1,1-3.18,3.16A3.18,3.18,0,0,1,419.81,44.27Zm-20.94,0a3.16,3.16,0,1,1-3.19,3.16A3.18,3.18,0,0,1,398.87,44.27Zm-20.94,0a3.16,3.16,0,1,1-3.19,3.16A3.17,3.17,0,0,1,377.93,44.27Zm-21.86,0a3.16,3.16,0,1,1-3.18,3.16A3.18,3.18,0,0,1,356.07,44.27Zm-20.94,0a3.16,3.16,0,1,1-3.19,3.16A3.18,3.18,0,0,1,335.13,44.27Zm84.68-22.13a3.16,3.16,0,1,1-3.18,3.16A3.17,3.17,0,0,1,419.81,22.14Zm-20.94,0a3.16,3.16,0,1,1-3.19,3.16A3.17,3.17,0,0,1,398.87,22.14Zm-20.94,0a3.16,3.16,0,1,1-3.19,3.16A3.16,3.16,0,0,1,377.93,22.14Zm-21.86,0a3.16,3.16,0,1,1-3.18,3.16A3.17,3.17,0,0,1,356.07,22.14ZM419.81,0A3.18,3.18,0,0,1,423,3.16,3.19,3.19,0,1,1,419.81,0ZM398.87,0a3.18,3.18,0,0,1,3.19,3.16,3.19,3.19,0,0,1-6.38,0A3.18,3.18,0,0,1,398.87,0ZM377.93,0a3.16,3.16,0,1,1-3.19,3.16A3.17,3.17,0,0,1,377.93,0Z"/><rect id="Forma-cuadrado" class="cls-2" y="140" width="637" height="620" rx="143"/></g></g></svg>