<svg id="Capa_1" data-name="Capa 1" xmlns="http://www.w3.org/2000/svg" viewBox="0 0 112 252">
    <defs>
        <style>
            .cls-1 {
                /* DEFAULT */
                fill: #12253d;
                /* MORENA */
                fill: #b75327;
                /* MOV CIUDADANO */
                fill: #c68620;
                /* PAN */
                fill: #1c54a5;
                /* PRD */
                fill: #f4d331;
                /* PRI */
                fill: #165916;
                fill-rule: evenodd;
            }
        </style>
    </defs>
    <title>login-puntos-superior-derecho</title>
    <g id="Capa_1-2" data-name="Capa 1-2">
        <path id="Puntos-superior-derecho" class="cls-1"
            d="M108.81,245.68a3.16,3.16,0,1,1-3.18,3.16,3.15,3.15,0,0,1,3.18-3.16Zm-20.94,0a3.16,3.16,0,1,1-3.19,3.16,3.15,3.15,0,0,1,3.19-3.16Zm-20.94,0a3.16,3.16,0,1,1-3.19,3.16,3.15,3.15,0,0,1,3.19-3.16Zm-21.86,0a3.16,3.16,0,1,1-3.18,3.16,3.15,3.15,0,0,1,3.18-3.16Zm-20.94,0a3.16,3.16,0,1,1-3.19,3.16,3.15,3.15,0,0,1,3.19-3.16Zm-20.94,0A3.16,3.16,0,1,1,0,248.84a3.15,3.15,0,0,1,3.19-3.16Zm84.68-22.14a3.16,3.16,0,1,1-3.19,3.16A3.15,3.15,0,0,1,87.87,223.54Zm-42.8,0a3.16,3.16,0,1,1-3.18,3.16A3.15,3.15,0,0,1,45.07,223.54Zm63.74,0a3.16,3.16,0,1,1-3.18,3.16A3.15,3.15,0,0,1,108.81,223.54Zm-84.68,0a3.16,3.16,0,1,1-3.19,3.16A3.15,3.15,0,0,1,24.13,223.54Zm42.8,0a3.16,3.16,0,1,1-3.19,3.16,3.15,3.15,0,0,1,3.19-3.16Zm-63.74,0A3.16,3.16,0,1,1,0,226.7a3.15,3.15,0,0,1,3.19-3.16Zm105.62-22.13a3.16,3.16,0,1,1-3.18,3.16,3.15,3.15,0,0,1,3.18-3.16Zm-20.94,0a3.16,3.16,0,1,1-3.19,3.16,3.15,3.15,0,0,1,3.19-3.16Zm-20.94,0a3.16,3.16,0,1,1-3.19,3.16,3.15,3.15,0,0,1,3.19-3.16Zm-21.86,0a3.16,3.16,0,1,1-3.18,3.16,3.15,3.15,0,0,1,3.18-3.16Zm-20.94,0a3.16,3.16,0,1,1-3.19,3.16,3.15,3.15,0,0,1,3.19-3.16Zm-20.94,0A3.16,3.16,0,1,1,0,204.57a3.15,3.15,0,0,1,3.19-3.16Zm105.62-22.14a3.16,3.16,0,1,1-3.18,3.16,3.15,3.15,0,0,1,3.18-3.16Zm-20.94,0a3.16,3.16,0,1,1-3.19,3.16,3.15,3.15,0,0,1,3.19-3.16Zm-20.94,0a3.16,3.16,0,1,1-3.19,3.16,3.15,3.15,0,0,1,3.19-3.16Zm-21.86,0a3.16,3.16,0,1,1-3.18,3.16,3.15,3.15,0,0,1,3.18-3.16Zm-20.94,0a3.16,3.16,0,1,1-3.19,3.16,3.15,3.15,0,0,1,3.19-3.16Zm-20.94,0A3.16,3.16,0,1,1,0,182.43a3.15,3.15,0,0,1,3.19-3.16Zm105.62-22.13a3.16,3.16,0,1,1-3.18,3.16,3.15,3.15,0,0,1,3.18-3.16Zm-20.94,0a3.16,3.16,0,1,1-3.19,3.16,3.15,3.15,0,0,1,3.19-3.16Zm-20.94,0a3.16,3.16,0,1,1-3.19,3.16,3.15,3.15,0,0,1,3.19-3.16Zm-21.86,0a3.16,3.16,0,1,1-3.18,3.16,3.15,3.15,0,0,1,3.18-3.16Zm-20.94,0a3.16,3.16,0,1,1-3.19,3.16,3.15,3.15,0,0,1,3.19-3.16Zm-20.94,0A3.16,3.16,0,1,1,0,160.3a3.15,3.15,0,0,1,3.19-3.16ZM45.07,135a3.16,3.16,0,1,1-3.18,3.16A3.15,3.15,0,0,1,45.07,135Zm63.74,0a3.16,3.16,0,1,1-3.18,3.16A3.15,3.15,0,0,1,108.81,135Zm-41.88,0a3.16,3.16,0,1,1-3.19,3.16A3.15,3.15,0,0,1,66.93,135Zm-42.8,0a3.16,3.16,0,1,1-3.19,3.16A3.15,3.15,0,0,1,24.13,135Zm63.74,0a3.16,3.16,0,1,1-3.19,3.16A3.15,3.15,0,0,1,87.87,135ZM3.19,135A3.16,3.16,0,1,1,0,138.16,3.15,3.15,0,0,1,3.19,135Zm105.62-24.32a3.16,3.16,0,1,1-3.18,3.16,3.15,3.15,0,0,1,3.18-3.16Zm-105.62,0A3.16,3.16,0,1,1,0,113.84a3.15,3.15,0,0,1,3.19-3.16Zm20.94,0a3.16,3.16,0,1,1-3.19,3.16,3.15,3.15,0,0,1,3.19-3.16Zm20.94,0a3.16,3.16,0,1,1-3.18,3.16,3.15,3.15,0,0,1,3.18-3.16Zm21.86,0a3.16,3.16,0,1,1-3.19,3.16,3.15,3.15,0,0,1,3.19-3.16Zm20.94,0a3.16,3.16,0,1,1-3.19,3.16,3.15,3.15,0,0,1,3.19-3.16ZM45.07,88.54a3.16,3.16,0,1,1-3.18,3.16A3.15,3.15,0,0,1,45.07,88.54Zm42.8,0a3.16,3.16,0,1,1-3.19,3.16A3.15,3.15,0,0,1,87.87,88.54Zm-84.68,0A3.16,3.16,0,1,1,0,91.7a3.15,3.15,0,0,1,3.19-3.16Zm20.94,0a3.16,3.16,0,1,1-3.19,3.16A3.15,3.15,0,0,1,24.13,88.54Zm42.8,0a3.16,3.16,0,1,1-3.19,3.16,3.15,3.15,0,0,1,3.19-3.16Zm41.88,0a3.16,3.16,0,1,1-3.18,3.16A3.15,3.15,0,0,1,108.81,88.54ZM87.87,66.41a3.16,3.16,0,1,1-3.19,3.16,3.15,3.15,0,0,1,3.19-3.16Zm-63.74,0a3.16,3.16,0,1,1-3.19,3.16,3.15,3.15,0,0,1,3.19-3.16Zm42.8,0a3.16,3.16,0,1,1-3.19,3.16,3.15,3.15,0,0,1,3.19-3.16Zm-21.86,0a3.16,3.16,0,1,1-3.18,3.16,3.15,3.15,0,0,1,3.18-3.16Zm63.74,0a3.16,3.16,0,1,1-3.18,3.16,3.15,3.15,0,0,1,3.18-3.16Zm-105.62,0A3.16,3.16,0,1,1,0,69.57a3.15,3.15,0,0,1,3.19-3.16ZM108.81,44.27a3.16,3.16,0,1,1-3.18,3.16A3.15,3.15,0,0,1,108.81,44.27Zm-20.94,0a3.16,3.16,0,1,1-3.19,3.16A3.15,3.15,0,0,1,87.87,44.27Zm-20.94,0a3.16,3.16,0,1,1-3.19,3.16,3.15,3.15,0,0,1,3.19-3.16Zm-21.86,0a3.16,3.16,0,1,1-3.18,3.16A3.15,3.15,0,0,1,45.07,44.27Zm-20.94,0a3.16,3.16,0,1,1-3.19,3.16A3.15,3.15,0,0,1,24.13,44.27Zm84.68-22.13a3.16,3.16,0,1,1-3.18,3.16,3.15,3.15,0,0,1,3.18-3.16Zm-20.94,0a3.16,3.16,0,1,1-3.19,3.16,3.15,3.15,0,0,1,3.19-3.16Zm-20.94,0a3.16,3.16,0,1,1-3.19,3.16,3.15,3.15,0,0,1,3.19-3.16Zm-21.86,0a3.16,3.16,0,1,1-3.18,3.16,3.15,3.15,0,0,1,3.18-3.16ZM108.81,0a3.19,3.19,0,1,1-3.19,3.22A3.18,3.18,0,0,1,108.81,0ZM87.87,0a3.18,3.18,0,1,1-3.19,3.16A3.18,3.18,0,0,1,87.87,0ZM66.93,0a3.16,3.16,0,1,1-3.19,3.16A3.15,3.15,0,0,1,66.93,0Z"
            transform="translate(0 0)" />
    </g>
</svg>