<?xml version="1.0" encoding="UTF-8" standalone="no"?>
<!-- Generator: Adobe Illustrator 22.0.1, SVG Export Plug-In . SVG Version: 6.00 Build 0)  -->

<svg
   xmlns:dc="http://purl.org/dc/elements/1.1/"
   xmlns:cc="http://creativecommons.org/ns#"
   xmlns:rdf="http://www.w3.org/1999/02/22-rdf-syntax-ns#"
   xmlns:svg="http://www.w3.org/2000/svg"
   xmlns="http://www.w3.org/2000/svg"
   xmlns:sodipodi="http://sodipodi.sourceforge.net/DTD/sodipodi-0.dtd"
   xmlns:inkscape="http://www.inkscape.org/namespaces/inkscape"
   version="1.1"
   id="Layer_1"
   inkscape:version="0.92.3 (2405546, 2018-03-11)"
   sodipodi:docname="Morena_logo_(Mexico).svg"
   x="0px"
   y="0px"
   viewBox="0 0 1000 1000"
   style="enable-background:new 0 0 1000 1000;"
   xml:space="preserve"><metadata
   id="metadata3789"><rdf:RDF><cc:Work
       rdf:about=""><dc:format>image/svg+xml</dc:format><dc:type
         rdf:resource="http://purl.org/dc/dcmitype/StillImage" /><dc:title></dc:title></cc:Work></rdf:RDF></metadata><defs
   id="defs3787" />
<style
   type="text/css"
   id="style3752">
	.st0{fill:#F9F9F9;}
	.st1{fill:#B5261E;}
</style>
<sodipodi:namedview
   bordercolor="#ffffff"
   borderopacity="0"
   gridtolerance="10"
   guidetolerance="10"
   id="namedview130"
   inkscape:current-layer="Layer_1"
   inkscape:cx="969.33677"
   inkscape:cy="437.42569"
   inkscape:pageopacity="0"
   inkscape:pageshadow="2"
   inkscape:window-height="837"
   inkscape:window-maximized="1"
   inkscape:window-width="1600"
   inkscape:window-x="-8"
   inkscape:window-y="-8"
   inkscape:zoom="0.5"
   objecttolerance="10"
   pagecolor="#ffffff"
   showgrid="false">
	</sodipodi:namedview>
<g
   id="g3784"
   transform="matrix(0.97638303,0,0,0.95906762,11.880516,20.543959)">
	<path
   id="path75"
   inkscape:connector-curvature="0"
   class="st1"
   d="m 107.8,528.1 c 0,-34.83333 0,-69.66667 0,-104.5 0,-16.1 -5.9,-21.5 -22,-19.8 -5.2,0.6 -10.1,1.7 -15.7,2.6 V 528 H 24 V 371.7 c 10.1,-1.4 20.5,-2.7 31,-4.1 2.8,3.4 5.6,6.6 8.7,10.1 12.4,-5.6 24.7,-10.6 38.4,-10.1 13.4,0.5 26,3.2 37.2,11.5 21.52534,-10.20691 41.76116,-13.44499 63.7,-9.6 18.9,3.4 28.8,16.3 32.3,34.6 1,5.5 1.5,11.3 1.5,16.8 0.1,34 0.1,68 0.1,102 0,1.7 -0.2,3.3 -0.3,5.3 H 190.5 V 521.3 425 c 0,-3.9 -0.1,-8 -1,-11.8 -1.5,-6.4 -5,-9.6 -11.5,-9.5 -7.9,0.1 -15.7,1.2 -24.2,2.1 v 122.4 c -15.5,-0.1 -30.3,-0.1 -46,-0.1 z"
   style="fill:#b5261e"
   sodipodi:nodetypes="ccccccccccccccscccsccccc" />
	<path
   id="path77"
   inkscape:connector-curvature="0"
   class="st1"
   d="m 676.2,371.3 c 10.7,-1.4 21.1,-2.7 31.4,-3.9 2.9,3.3 5.7,6.4 7.7,8.8 10.5,-2.8 20.2,-6.2 30.2,-7.8 19,-3 36.6,1 51.1,14.4 10.6,9.7 16.6,21.9 17.9,36 0.3,3.9 0.6,8 0.6,11.9 0,32.4 0,64.8 0,97.2 h -47 c -0.0163,-34.34254 -0.008,-70.031 -0.1,-99.6 -0.0811,-10.95368 -2.1013,-22.00625 -13.2,-24.2 -10.8,-2 -21.5,-0.1 -32.7,2.1 v 121.9 h -46 c 0.1,-52.4 0.1,-104.2 0.1,-156.8 z"
   style="fill:#b5261e"
   sodipodi:nodetypes="ccccccccccccccc" />
	<path
   id="path79"
   inkscape:connector-curvature="0"
   class="st1"
   d="m 857.7,411.3 c -3.7,-9.3 -7.2,-18.2 -11,-27.5 0.7,-0.5 1.2,-1.1 2,-1.4 15.4,-6 30.9,-11.6 47.2,-14.3 19.5,-3.2 36.9,2 51.8,14.9 10.6,9.1 15.3,21.2 15.3,34.9 0.0918,27.62125 0,51.22534 0,76 4.5,0.2 8.4,0.3 13,0.6 2,8.2 3.9,16.4 6.1,25.2 -8.6,4.5 -17.7,7.2 -26.8,10 -16.03711,3.03401 -25.13718,-2.98707 -33.8,-10.8 -10,5.5 -20.6,10 -32,11.7 -19,2.9 -35.3,-2.9 -47.5,-17.7 -11.8,-14.1 -14.4,-30.5 -7.8,-47.5 7.2,-18.7 22.2,-28.5 41.6,-30.6 9.8,-1 19.9,0.2 30.1,0.5 3.5,0.1 7,0.6 11.3,0.9 0.5,-7.4 1.1,-14.5 -0.5,-21.4 -2.1,-8.2 -11.4,-13.6 -20.9,-12.1 -13.79768,1.4611 -26.6553,6.43529 -38.1,8.6 z m 59.4,53.8 c -8.3,0 -16.3,-0.2 -24.4,0 -8.4,0.2 -14.4,6.2 -14.8,14 -0.2,8.7 5.9,16.4 14,17.1 8.6,0.7 16.8,-1 25.5,-2.8 -0.0101,-9.17795 0.19863,-19.71418 -0.3,-28.3 z"
   style="fill:#b5261e"
   sodipodi:nodetypes="cccccccccccccccccccccccccc" />
	<path
   id="path81"
   inkscape:connector-curvature="0"
   class="st1"
   d="m 335.7,531.6 c -38.9,0 -67.7,-24.4 -74,-62.7 -2.7,-16.4 -2.4,-32.8 2.6,-48.8 11.6,-38.1 44.2,-55.9 81,-51.8 42,4.5 61.9,35.9 65.8,67.6 1.7,13 1.1,25.8 -2,38.5 -8.7,35.9 -36.2,57.2 -73.4,57.2 z m 29.6,-82.2 c -0.5,-11.9 -0.9,-23.9 -7,-34.6 -9.9,-17.8 -34.4,-18 -44.5,-0.5 -1.9,3.2 -3.3,6.8 -4.3,10.2 -3.8,13.6 -4.1,27.7 -1.7,41.4 1.1,6.9 3.6,13.6 6.8,19.8 4.3,8.4 12.1,12.3 21.6,12.2 11.4,-0.1 18.7,-6 23.2,-15.9 5,-10.1 5.5,-21.4 5.9,-32.6 z"
   style="fill:#b5261e" />
	<path
   id="path83"
   inkscape:connector-curvature="0"
   class="st1"
   d="m 653.5,461.8 c -28.7,-0.6 -57.4,-1.1 -86.2,-1.9 0,22.5 14.5,37.6 35.9,36.3 16.06475,-1.32594 31.29992,-4.5857 44.9,-7.2 1.1,9.6 2.4,18.7 3.5,27.9 -13.6,7.1 -27.6,11.2 -42,13.4 -11.3,1.8 -22.4,2.9 -33.7,0.7 -22.6,-4.3 -38.4,-17.9 -47.2,-38.9 -11.4,-27.4 -11.6,-55.5 -0.9,-82.9 12.3,-31.9 41,-43.9 72,-41.1 4.8,0.5 9.6,1.1 14.2,2.5 23.4,6.4 36.9,22.5 41.9,45.7 2.88404,15.57674 4.51557,32.77606 -2.4,45.5 z m -40.9,-31.7 c -0.1,-9 -2.8,-16.8 -7.2,-22.1 -7.8,-9.3 -24.7,-9 -31.8,0.8 -4.5,6.2 -5.7,13.4 -6,21.4 15.3,-0.1 29.9,-0.1 45,-0.1 z"
   style="fill:#b5261e"
   sodipodi:nodetypes="cccccccccccccccccc" />
	<path
   id="path85"
   inkscape:connector-curvature="0"
   class="st1"
   d="m 476.2,528.4 h -45.6 v -157 c 10.2,-1.2 20.6,-2.5 31.3,-3.7 2.8,4.3 5.6,8.7 8.7,13.4 17.6695,-10.71415 31.99261,-14.51003 49.5,-17.4 -2,15 -3.9,29.2 -5.9,43.1 -13,1.8 -25.3,3.5 -38,5.2 z"
   style="fill:#b5261e"
   sodipodi:nodetypes="ccccccccc" />
</g>
</svg>